%TF.GenerationSoftware,KiCad,Pcbnew,7.0.1*%
%TF.CreationDate,2023-06-21T13:58:24+02:00*%
%TF.ProjectId,rtl872xd-dev-board,72746c38-3732-4786-942d-6465762d626f,0.1.0*%
%TF.SameCoordinates,Original*%
%TF.FileFunction,Legend,Bot*%
%TF.FilePolarity,Positive*%
%FSLAX46Y46*%
G04 Gerber Fmt 4.6, Leading zero omitted, Abs format (unit mm)*
G04 Created by KiCad (PCBNEW 7.0.1) date 2023-06-21 13:58:24*
%MOMM*%
%LPD*%
G01*
G04 APERTURE LIST*
G04 Aperture macros list*
%AMRoundRect*
0 Rectangle with rounded corners*
0 $1 Rounding radius*
0 $2 $3 $4 $5 $6 $7 $8 $9 X,Y pos of 4 corners*
0 Add a 4 corners polygon primitive as box body*
4,1,4,$2,$3,$4,$5,$6,$7,$8,$9,$2,$3,0*
0 Add four circle primitives for the rounded corners*
1,1,$1+$1,$2,$3*
1,1,$1+$1,$4,$5*
1,1,$1+$1,$6,$7*
1,1,$1+$1,$8,$9*
0 Add four rect primitives between the rounded corners*
20,1,$1+$1,$2,$3,$4,$5,0*
20,1,$1+$1,$4,$5,$6,$7,0*
20,1,$1+$1,$6,$7,$8,$9,0*
20,1,$1+$1,$8,$9,$2,$3,0*%
G04 Aperture macros list end*
%ADD10RoundRect,0.101600X-0.175000X-1.250000X0.175000X-1.250000X0.175000X1.250000X-0.175000X1.250000X0*%
%ADD11C,5.703200*%
%ADD12C,0.990600*%
G04 APERTURE END LIST*
%LPC*%
D10*
%TO.C,J2*%
X136000000Y-144000000D03*
X135500000Y-144000000D03*
X135000000Y-144000000D03*
X134500000Y-144000000D03*
X134000000Y-144000000D03*
X131500000Y-144000000D03*
X131000000Y-144000000D03*
X130500000Y-144000000D03*
X130000000Y-144000000D03*
X129500000Y-144000000D03*
X129000000Y-144000000D03*
X128500000Y-144000000D03*
X128000000Y-144000000D03*
X127500000Y-144000000D03*
X127000000Y-144000000D03*
X126500000Y-144000000D03*
X126000000Y-144000000D03*
X125500000Y-144000000D03*
X125000000Y-144000000D03*
X124500000Y-144000000D03*
X124000000Y-144000000D03*
X123500000Y-144000000D03*
X123000000Y-144000000D03*
X122500000Y-144000000D03*
X122000000Y-144000000D03*
X121500000Y-144000000D03*
X121000000Y-144000000D03*
X120500000Y-144000000D03*
X120000000Y-144000000D03*
X119500000Y-144000000D03*
X119000000Y-144000000D03*
X118500000Y-144000000D03*
X118000000Y-144000000D03*
D11*
X127000000Y-113250000D03*
%TD*%
D12*
%TO.C,J4*%
X116500000Y-116040000D03*
X115484000Y-110960000D03*
X117516000Y-110960000D03*
%TD*%
%TO.C,J3*%
X120500000Y-116040000D03*
X119484000Y-110960000D03*
X121516000Y-110960000D03*
%TD*%
M02*
