%TF.GenerationSoftware,KiCad,Pcbnew,7.0.1*%
%TF.CreationDate,2023-06-20T18:51:05+02:00*%
%TF.ProjectId,rtl872xd-dev-board,72746c38-3732-4786-942d-6465762d626f,0.1.0*%
%TF.SameCoordinates,Original*%
%TF.FileFunction,Legend,Top*%
%TF.FilePolarity,Positive*%
%FSLAX46Y46*%
G04 Gerber Fmt 4.6, Leading zero omitted, Abs format (unit mm)*
G04 Created by KiCad (PCBNEW 7.0.1) date 2023-06-20 18:51:05*
%MOMM*%
%LPD*%
G01*
G04 APERTURE LIST*
G04 Aperture macros list*
%AMRoundRect*
0 Rectangle with rounded corners*
0 $1 Rounding radius*
0 $2 $3 $4 $5 $6 $7 $8 $9 X,Y pos of 4 corners*
0 Add a 4 corners polygon primitive as box body*
4,1,4,$2,$3,$4,$5,$6,$7,$8,$9,$2,$3,0*
0 Add four circle primitives for the rounded corners*
1,1,$1+$1,$2,$3*
1,1,$1+$1,$4,$5*
1,1,$1+$1,$6,$7*
1,1,$1+$1,$8,$9*
0 Add four rect primitives between the rounded corners*
20,1,$1+$1,$2,$3,$4,$5,0*
20,1,$1+$1,$4,$5,$6,$7,0*
20,1,$1+$1,$6,$7,$8,$9,0*
20,1,$1+$1,$8,$9,$2,$3,0*%
%AMHorizOval*
0 Thick line with rounded ends*
0 $1 width*
0 $2 $3 position (X,Y) of the first rounded end (center of the circle)*
0 $4 $5 position (X,Y) of the second rounded end (center of the circle)*
0 Add line between two ends*
20,1,$1,$2,$3,$4,$5,0*
0 Add two circle primitives to create the rounded ends*
1,1,$1,$2,$3*
1,1,$1,$4,$5*%
%AMRotRect*
0 Rectangle, with rotation*
0 The origin of the aperture is its center*
0 $1 length*
0 $2 width*
0 $3 Rotation angle, in degrees counterclockwise*
0 Add horizontal line*
21,1,$1,$2,0,0,$3*%
G04 Aperture macros list end*
%ADD10C,0.120000*%
%ADD11C,0.152000*%
%ADD12C,0.150000*%
%ADD13RoundRect,0.101600X-0.175000X-1.250000X0.175000X-1.250000X0.175000X1.250000X-0.175000X1.250000X0*%
%ADD14C,5.703200*%
%ADD15RoundRect,0.218750X0.424264X0.114905X0.114905X0.424264X-0.424264X-0.114905X-0.114905X-0.424264X0*%
%ADD16RoundRect,0.140000X-0.219203X-0.021213X-0.021213X-0.219203X0.219203X0.021213X0.021213X0.219203X0*%
%ADD17RoundRect,0.140000X0.219203X0.021213X0.021213X0.219203X-0.219203X-0.021213X-0.021213X-0.219203X0*%
%ADD18HorizOval,0.200000X-0.194454X0.194454X0.194454X-0.194454X0*%
%ADD19HorizOval,0.200000X0.194454X0.194454X-0.194454X-0.194454X0*%
%ADD20RotRect,1.550000X1.482500X135.000000*%
%ADD21RoundRect,0.147500X0.172500X-0.147500X0.172500X0.147500X-0.172500X0.147500X-0.172500X-0.147500X0*%
%ADD22RoundRect,0.140000X0.140000X0.170000X-0.140000X0.170000X-0.140000X-0.170000X0.140000X-0.170000X0*%
%ADD23C,1.000000*%
%ADD24RoundRect,0.140000X0.170000X-0.140000X0.170000X0.140000X-0.170000X0.140000X-0.170000X-0.140000X0*%
%ADD25RoundRect,0.140000X-0.140000X-0.170000X0.140000X-0.170000X0.140000X0.170000X-0.140000X0.170000X0*%
%ADD26RoundRect,0.150000X0.150000X-0.650000X0.150000X0.650000X-0.150000X0.650000X-0.150000X-0.650000X0*%
%ADD27RoundRect,0.135000X0.035355X-0.226274X0.226274X-0.035355X-0.035355X0.226274X-0.226274X0.035355X0*%
%ADD28R,1.000000X1.050000*%
%ADD29R,1.050000X2.200000*%
%ADD30RoundRect,0.140000X-0.021213X0.219203X-0.219203X0.021213X0.021213X-0.219203X0.219203X-0.021213X0*%
%ADD31RoundRect,0.140000X0.021213X-0.219203X0.219203X-0.021213X-0.021213X0.219203X-0.219203X0.021213X0*%
%ADD32RoundRect,0.150000X-0.309359X-0.521491X0.521491X0.309359X0.309359X0.521491X-0.521491X-0.309359X0*%
%ADD33RoundRect,0.135000X-0.035355X0.226274X-0.226274X0.035355X0.035355X-0.226274X0.226274X-0.035355X0*%
%ADD34R,0.280000X0.600000*%
%ADD35R,1.700000X0.300000*%
%ADD36R,0.280000X0.265000*%
%ADD37RoundRect,0.135000X-0.226274X-0.035355X-0.035355X-0.226274X0.226274X0.035355X0.035355X0.226274X0*%
%ADD38RoundRect,0.135000X0.226274X0.035355X0.035355X0.226274X-0.226274X-0.035355X-0.035355X-0.226274X0*%
%ADD39RotRect,0.900000X0.800000X225.000000*%
%ADD40RoundRect,0.135000X-0.135000X-0.185000X0.135000X-0.185000X0.135000X0.185000X-0.135000X0.185000X0*%
G04 APERTURE END LIST*
D10*
%TO.C,L4*%
X118636597Y-127928555D02*
X118071446Y-127363404D01*
X119428556Y-127136596D02*
X118863405Y-126571445D01*
%TO.C,C22*%
X135428307Y-127919190D02*
X135580810Y-128071693D01*
X134919190Y-128428307D02*
X135071693Y-128580810D01*
%TO.C,C6*%
X134821693Y-115830810D02*
X134669190Y-115678307D01*
X135330810Y-115321693D02*
X135178307Y-115169190D01*
%TO.C,C28*%
X122928307Y-119419190D02*
X123080810Y-119571693D01*
X122419190Y-119928307D02*
X122571693Y-120080810D01*
%TO.C,C14*%
X129321693Y-134330810D02*
X129169190Y-134178307D01*
X129830810Y-133821693D02*
X129678307Y-133669190D01*
%TO.C,U1*%
X134283200Y-126000000D02*
X133894291Y-126388909D01*
X126611091Y-132894291D02*
X127159099Y-133442299D01*
X133894291Y-125611091D02*
X134283200Y-126000000D01*
X120105709Y-126388909D02*
X119716800Y-126000000D01*
X127388909Y-119105709D02*
X127000000Y-118716800D01*
X119716800Y-126000000D02*
X120105709Y-125611091D01*
X127000000Y-118716800D02*
X126611091Y-119105709D01*
%TO.C,C19*%
X131928307Y-131419190D02*
X132080810Y-131571693D01*
X131419190Y-131928307D02*
X131571693Y-132080810D01*
%TO.C,C7*%
X134107836Y-113360000D02*
X133892164Y-113360000D01*
X134107836Y-112640000D02*
X133892164Y-112640000D01*
%TO.C,C31*%
X118928307Y-123419190D02*
X119080810Y-123571693D01*
X118419190Y-123928307D02*
X118571693Y-124080810D01*
%TO.C,C8*%
X134107836Y-110360000D02*
X133892164Y-110360000D01*
X134107836Y-109640000D02*
X133892164Y-109640000D01*
%TO.C,C24*%
X136571693Y-127080810D02*
X136419190Y-126928307D01*
X137080810Y-126571693D02*
X136928307Y-126419190D01*
%TO.C,TP1*%
X138200000Y-115000000D02*
G75*
G03*
X138200000Y-115000000I-700000J0D01*
G01*
%TO.C,C5*%
X135140000Y-117607836D02*
X135140000Y-117392164D01*
X135860000Y-117607836D02*
X135860000Y-117392164D01*
%TO.C,C13*%
X128571693Y-135080810D02*
X128419190Y-134928307D01*
X129080810Y-134571693D02*
X128928307Y-134419190D01*
%TO.C,C21*%
X134678307Y-128669190D02*
X134830810Y-128821693D01*
X134169190Y-129178307D02*
X134321693Y-129330810D01*
%TO.C,C17*%
X130071693Y-133580810D02*
X129919190Y-133428307D01*
X130580810Y-133071693D02*
X130428307Y-132919190D01*
%TO.C,C25*%
X133607836Y-122360000D02*
X133392164Y-122360000D01*
X133607836Y-121640000D02*
X133392164Y-121640000D01*
%TO.C,C27*%
X125428307Y-116919190D02*
X125580810Y-117071693D01*
X124919190Y-117428307D02*
X125071693Y-117580810D01*
%TO.C,C26*%
X132392164Y-120640000D02*
X132607836Y-120640000D01*
X132392164Y-121360000D02*
X132607836Y-121360000D01*
%TO.C,C2*%
X135178307Y-124669190D02*
X135330810Y-124821693D01*
X134669190Y-125178307D02*
X134821693Y-125330810D01*
%TO.C,U2*%
X115275000Y-137475000D02*
X115535000Y-137475000D01*
X115535000Y-137475000D02*
X115535000Y-139150000D01*
X120725000Y-137475000D02*
X120465000Y-137475000D01*
X115275000Y-134750000D02*
X115275000Y-137475000D01*
X115275000Y-134750000D02*
X115275000Y-132025000D01*
X120725000Y-134750000D02*
X120725000Y-137475000D01*
X120725000Y-134750000D02*
X120725000Y-132025000D01*
X115275000Y-132025000D02*
X115535000Y-132025000D01*
X120725000Y-132025000D02*
X120465000Y-132025000D01*
%TO.C,R5*%
X124122659Y-133839940D02*
X124339940Y-133622659D01*
X124660060Y-134377341D02*
X124877341Y-134160060D01*
%TO.C,G\u002A\u002A\u002A*%
G36*
X115304422Y-121407405D02*
G01*
X115410009Y-121512992D01*
X115293862Y-121629139D01*
X115177715Y-121745286D01*
X115072128Y-121639699D01*
X114966540Y-121534111D01*
X115082687Y-121417964D01*
X115198834Y-121301817D01*
X115304422Y-121407405D01*
G37*
G36*
X118815302Y-118799300D02*
G01*
X119454028Y-119443468D01*
X119343518Y-119559973D01*
X119233008Y-119676477D01*
X118588564Y-119032033D01*
X117944121Y-118387590D01*
X118060349Y-118271361D01*
X118176578Y-118155133D01*
X118815302Y-118799300D01*
G37*
G36*
X120647555Y-116069552D02*
G01*
X120753524Y-116169477D01*
X120636995Y-116286006D01*
X120520466Y-116402535D01*
X120414521Y-116296590D01*
X120308576Y-116190645D01*
X120425080Y-116080135D01*
X120541584Y-115969625D01*
X120647555Y-116069552D01*
G37*
G36*
X121291259Y-116719300D02*
G01*
X121734728Y-117162769D01*
X121624218Y-117279273D01*
X121513708Y-117395777D01*
X121064245Y-116946314D01*
X120614782Y-116496850D01*
X120731285Y-116386340D01*
X120847789Y-116275830D01*
X121291259Y-116719300D01*
G37*
G36*
X115953430Y-122056414D02*
G01*
X116402536Y-122505519D01*
X116291337Y-122616718D01*
X116234858Y-122671380D01*
X116195409Y-122705068D01*
X116170717Y-122719588D01*
X116161861Y-122719777D01*
X116147716Y-122707692D01*
X116114955Y-122676588D01*
X116065889Y-122628748D01*
X116002827Y-122566459D01*
X115928080Y-122492008D01*
X115843958Y-122407681D01*
X115752772Y-122315767D01*
X115713444Y-122275976D01*
X115283303Y-121840316D01*
X115393814Y-121723811D01*
X115504324Y-121607308D01*
X115953430Y-122056414D01*
G37*
G36*
X122863139Y-114506558D02*
G01*
X122888257Y-114512491D01*
X122932038Y-114525235D01*
X122972432Y-114540786D01*
X123012506Y-114561535D01*
X123055327Y-114589871D01*
X123103964Y-114628185D01*
X123161485Y-114678866D01*
X123230959Y-114744303D01*
X123315454Y-114826888D01*
X123400610Y-114911588D01*
X123699379Y-115210106D01*
X123582875Y-115320617D01*
X123466371Y-115431126D01*
X123165445Y-115140759D01*
X123076049Y-115054706D01*
X123005211Y-114987176D01*
X122950152Y-114935796D01*
X122908094Y-114898194D01*
X122876259Y-114871995D01*
X122851867Y-114854828D01*
X122832143Y-114844316D01*
X122814305Y-114838090D01*
X122809720Y-114836900D01*
X122740582Y-114834003D01*
X122674487Y-114856134D01*
X122616165Y-114898505D01*
X122570349Y-114956329D01*
X122541768Y-115024817D01*
X122535155Y-115099180D01*
X122536717Y-115113203D01*
X122540011Y-115129149D01*
X122546676Y-115145866D01*
X122559026Y-115166088D01*
X122579384Y-115192545D01*
X122610066Y-115227973D01*
X122653391Y-115275101D01*
X122711676Y-115336661D01*
X122787241Y-115415388D01*
X122836232Y-115466192D01*
X123128489Y-115769008D01*
X123017979Y-115885512D01*
X122907469Y-116002016D01*
X122457994Y-115552540D01*
X122008518Y-115103065D01*
X122119755Y-114997846D01*
X122230992Y-114892627D01*
X122268644Y-114923659D01*
X122306296Y-114954689D01*
X122314765Y-114895869D01*
X122329914Y-114816238D01*
X122352585Y-114754670D01*
X122388582Y-114699598D01*
X122443055Y-114640105D01*
X122538039Y-114563135D01*
X122639903Y-114515167D01*
X122748363Y-114496280D01*
X122863139Y-114506558D01*
G37*
G36*
X117267618Y-119843964D02*
G01*
X117306636Y-119807057D01*
X117833464Y-119807057D01*
X117846532Y-119898382D01*
X117861823Y-119942687D01*
X117894368Y-119997421D01*
X117944419Y-120055017D01*
X118002332Y-120105896D01*
X118058462Y-120140484D01*
X118063004Y-120142433D01*
X118160360Y-120168932D01*
X118253500Y-120168911D01*
X118338358Y-120143944D01*
X118410870Y-120095606D01*
X118466972Y-120025472D01*
X118489777Y-119977073D01*
X118508489Y-119886677D01*
X118498221Y-119795210D01*
X118459659Y-119705046D01*
X118393486Y-119618561D01*
X118383386Y-119608205D01*
X118305666Y-119547521D01*
X118223794Y-119512857D01*
X118141330Y-119501932D01*
X118061833Y-119512464D01*
X117988864Y-119542168D01*
X117925983Y-119588763D01*
X117876750Y-119649964D01*
X117844723Y-119723490D01*
X117833464Y-119807057D01*
X117306636Y-119807057D01*
X117378855Y-119738746D01*
X117490092Y-119633527D01*
X117532643Y-119669561D01*
X117575194Y-119705594D01*
X117593635Y-119614284D01*
X117612975Y-119548284D01*
X117643114Y-119476495D01*
X117666251Y-119433299D01*
X117701155Y-119379374D01*
X117733829Y-119340968D01*
X117774920Y-119306660D01*
X117802475Y-119287108D01*
X117922480Y-119221500D01*
X118048846Y-119184517D01*
X118178981Y-119176296D01*
X118310292Y-119196971D01*
X118440186Y-119246675D01*
X118453016Y-119253257D01*
X118527444Y-119301514D01*
X118605407Y-119367247D01*
X118677064Y-119441231D01*
X118732572Y-119514242D01*
X118734187Y-119516802D01*
X118788856Y-119628868D01*
X118820635Y-119749679D01*
X118829628Y-119873517D01*
X118815938Y-119994662D01*
X118779667Y-120107396D01*
X118721808Y-120204851D01*
X118645662Y-120285794D01*
X118557322Y-120351065D01*
X118463588Y-120396677D01*
X118371255Y-120418640D01*
X118355521Y-120419765D01*
X118309997Y-120421756D01*
X118549410Y-120661169D01*
X118788824Y-120900583D01*
X118672677Y-121016729D01*
X118556530Y-121132877D01*
X117912074Y-120488421D01*
X117711545Y-120287891D01*
X117267618Y-119843964D01*
G37*
G36*
X121402769Y-116561011D02*
G01*
X121326509Y-116458564D01*
X121272007Y-116345652D01*
X121239346Y-116226178D01*
X121228611Y-116104047D01*
X121232285Y-116064654D01*
X121539952Y-116064654D01*
X121546421Y-116159229D01*
X121556429Y-116198718D01*
X121573447Y-116241485D01*
X121599922Y-116282273D01*
X121641870Y-116329729D01*
X121661182Y-116349376D01*
X121712984Y-116398114D01*
X121755109Y-116429286D01*
X121796207Y-116448910D01*
X121811840Y-116454129D01*
X121880623Y-116467402D01*
X121952729Y-116468721D01*
X122016976Y-116458610D01*
X122055097Y-116442708D01*
X122086195Y-116423684D01*
X122104713Y-116413521D01*
X122130983Y-116390207D01*
X122160186Y-116347849D01*
X122186493Y-116295955D01*
X122200685Y-116256948D01*
X122208966Y-116192411D01*
X122202079Y-116119023D01*
X122199711Y-116108150D01*
X122188362Y-116065758D01*
X122174349Y-116032697D01*
X122152463Y-116000869D01*
X122117493Y-115962174D01*
X122083997Y-115928218D01*
X122035206Y-115880811D01*
X121998585Y-115850112D01*
X121966140Y-115830797D01*
X121929884Y-115817538D01*
X121909597Y-115811974D01*
X121814277Y-115800283D01*
X121728464Y-115814469D01*
X121655143Y-115851266D01*
X121597295Y-115907406D01*
X121557904Y-115979624D01*
X121539952Y-116064654D01*
X121232285Y-116064654D01*
X121239884Y-115983162D01*
X121273249Y-115867428D01*
X121328790Y-115760747D01*
X121406591Y-115667025D01*
X121478462Y-115608362D01*
X121601761Y-115540633D01*
X121730766Y-115501029D01*
X121862107Y-115489228D01*
X121992413Y-115504901D01*
X122118318Y-115547723D01*
X122236449Y-115617369D01*
X122320742Y-115689817D01*
X122411781Y-115800350D01*
X122475930Y-115922131D01*
X122512317Y-116053010D01*
X122520491Y-116180436D01*
X122508630Y-116291316D01*
X122478534Y-116390025D01*
X122426314Y-116488754D01*
X122417893Y-116501926D01*
X122377816Y-116560929D01*
X122343239Y-116603011D01*
X122305096Y-116637326D01*
X122254321Y-116673025D01*
X122237724Y-116683796D01*
X122117168Y-116744370D01*
X121989618Y-116777177D01*
X121858649Y-116782386D01*
X121727829Y-116760166D01*
X121600731Y-116710685D01*
X121500704Y-116649091D01*
X121427398Y-116583161D01*
X121402769Y-116561011D01*
G37*
G36*
X119027923Y-118662879D02*
G01*
X118984089Y-118537509D01*
X118965718Y-118408842D01*
X118968493Y-118354724D01*
X119262965Y-118354724D01*
X119265527Y-118410434D01*
X119272202Y-118457434D01*
X119280294Y-118482715D01*
X119297623Y-118512318D01*
X119513090Y-118296851D01*
X119577686Y-118231714D01*
X119633976Y-118173914D01*
X119678915Y-118126666D01*
X119709456Y-118093182D01*
X119722558Y-118076675D01*
X119722753Y-118075580D01*
X119701964Y-118065194D01*
X119663836Y-118052584D01*
X119620351Y-118041199D01*
X119583491Y-118034487D01*
X119578405Y-118034037D01*
X119504749Y-118042892D01*
X119429196Y-118075566D01*
X119359439Y-118127594D01*
X119303870Y-118193424D01*
X119278143Y-118242913D01*
X119265667Y-118297262D01*
X119262965Y-118354724D01*
X118968493Y-118354724D01*
X118972282Y-118280826D01*
X119003253Y-118157412D01*
X119058107Y-118042549D01*
X119136314Y-117940186D01*
X119219752Y-117866690D01*
X119339412Y-117795942D01*
X119464030Y-117753869D01*
X119591171Y-117740216D01*
X119718400Y-117754721D01*
X119843284Y-117797126D01*
X119963386Y-117867172D01*
X120068657Y-117956897D01*
X120150909Y-118039149D01*
X119818306Y-118371751D01*
X119712370Y-118478333D01*
X119627873Y-118564779D01*
X119564505Y-118631423D01*
X119521957Y-118678593D01*
X119499918Y-118706624D01*
X119496788Y-118715436D01*
X119527959Y-118732512D01*
X119577191Y-118745484D01*
X119632713Y-118751617D01*
X119652497Y-118751605D01*
X119742943Y-118737653D01*
X119819134Y-118700774D01*
X119870915Y-118657024D01*
X119928271Y-118586884D01*
X119959197Y-118515029D01*
X119966766Y-118437069D01*
X119964801Y-118373080D01*
X120084252Y-118253629D01*
X120141038Y-118198713D01*
X120183100Y-118162042D01*
X120208474Y-118145250D01*
X120214613Y-118145088D01*
X120228159Y-118169459D01*
X120244370Y-118213658D01*
X120260444Y-118268154D01*
X120273578Y-118323414D01*
X120280971Y-118369906D01*
X120281087Y-118371205D01*
X120276703Y-118481696D01*
X120247370Y-118595714D01*
X120196371Y-118707041D01*
X120126989Y-118809461D01*
X120042507Y-118896756D01*
X119978697Y-118943934D01*
X119856905Y-119004111D01*
X119728662Y-119037440D01*
X119598121Y-119044688D01*
X119469432Y-119026625D01*
X119346742Y-118984016D01*
X119234202Y-118917629D01*
X119135962Y-118828232D01*
X119097745Y-118781001D01*
X119072184Y-118737757D01*
X119027923Y-118662879D01*
G37*
G36*
X120494763Y-116630243D02*
G01*
X120499310Y-116646153D01*
X120508543Y-116687307D01*
X120521615Y-116749604D01*
X120537677Y-116828939D01*
X120555880Y-116921210D01*
X120569272Y-116990422D01*
X120637159Y-117343979D01*
X121016547Y-117416579D01*
X121118997Y-117436366D01*
X121211428Y-117454566D01*
X121289892Y-117470372D01*
X121350441Y-117482982D01*
X121389130Y-117491587D01*
X121401994Y-117495239D01*
X121394213Y-117507214D01*
X121368568Y-117535440D01*
X121329012Y-117575770D01*
X121279497Y-117624059D01*
X121276592Y-117626835D01*
X121145127Y-117752369D01*
X120910992Y-117696096D01*
X120832054Y-117677922D01*
X120764093Y-117663796D01*
X120712010Y-117654615D01*
X120680710Y-117651274D01*
X120673810Y-117652732D01*
X120676080Y-117670988D01*
X120684328Y-117713016D01*
X120697436Y-117773576D01*
X120714286Y-117847430D01*
X120725833Y-117896397D01*
X120780904Y-118127152D01*
X120654835Y-118253220D01*
X120600981Y-118306468D01*
X120564156Y-118340881D01*
X120540738Y-118359202D01*
X120527105Y-118364172D01*
X120519633Y-118358530D01*
X120518539Y-118356327D01*
X120512965Y-118335670D01*
X120502812Y-118290023D01*
X120488983Y-118223754D01*
X120472375Y-118141232D01*
X120453889Y-118046825D01*
X120441295Y-117981177D01*
X120422115Y-117882232D01*
X120404176Y-117793131D01*
X120388372Y-117718052D01*
X120375598Y-117661177D01*
X120366753Y-117626687D01*
X120363467Y-117618180D01*
X120346267Y-117612393D01*
X120304003Y-117602117D01*
X120240979Y-117588281D01*
X120161501Y-117571813D01*
X120069874Y-117553644D01*
X120019068Y-117543872D01*
X119922111Y-117525373D01*
X119834344Y-117508546D01*
X119760243Y-117494254D01*
X119704286Y-117483364D01*
X119670951Y-117476741D01*
X119664160Y-117475298D01*
X119659487Y-117468591D01*
X119668559Y-117451745D01*
X119693635Y-117421955D01*
X119736976Y-117376420D01*
X119773911Y-117339150D01*
X119904981Y-117208079D01*
X120108389Y-117258269D01*
X120182798Y-117276183D01*
X120247003Y-117290801D01*
X120295366Y-117300902D01*
X120322247Y-117305265D01*
X120325407Y-117305247D01*
X120326936Y-117290450D01*
X120321922Y-117251939D01*
X120311272Y-117194919D01*
X120295893Y-117124599D01*
X120288582Y-117093753D01*
X120238145Y-116885474D01*
X120363143Y-116754547D01*
X120411678Y-116704757D01*
X120452550Y-116664798D01*
X120481587Y-116638613D01*
X120494617Y-116630142D01*
X120494763Y-116630243D01*
G37*
G36*
X117132762Y-120243059D02*
G01*
X117235841Y-120270121D01*
X117268198Y-120284496D01*
X117298031Y-120305069D01*
X117347721Y-120346864D01*
X117417408Y-120410013D01*
X117507233Y-120494641D01*
X117617338Y-120600878D01*
X117643546Y-120626429D01*
X117967109Y-120942398D01*
X117850027Y-121053476D01*
X117732945Y-121164552D01*
X117432018Y-120874186D01*
X117342623Y-120788132D01*
X117271784Y-120720603D01*
X117216725Y-120669222D01*
X117174667Y-120631621D01*
X117142832Y-120605422D01*
X117118441Y-120588254D01*
X117098716Y-120577743D01*
X117080879Y-120571516D01*
X117076293Y-120570327D01*
X117007162Y-120567427D01*
X116941010Y-120589457D01*
X116882678Y-120631540D01*
X116836999Y-120688799D01*
X116808813Y-120756358D01*
X116802954Y-120829338D01*
X116804864Y-120844019D01*
X116808443Y-120861462D01*
X116814533Y-120878518D01*
X116825478Y-120897983D01*
X116843626Y-120922657D01*
X116871323Y-120955336D01*
X116910917Y-120998818D01*
X116964752Y-121055904D01*
X117035177Y-121129388D01*
X117104696Y-121201508D01*
X117395063Y-121502434D01*
X117285304Y-121618172D01*
X117175544Y-121733910D01*
X116884069Y-121449231D01*
X116796332Y-121363755D01*
X116726903Y-121296814D01*
X116672884Y-121245909D01*
X116631379Y-121208545D01*
X116599490Y-121182225D01*
X116574320Y-121164450D01*
X116552974Y-121152727D01*
X116532553Y-121144558D01*
X116529242Y-121143434D01*
X116456178Y-121133031D01*
X116387707Y-121148516D01*
X116327850Y-121185919D01*
X116280630Y-121241274D01*
X116250072Y-121310607D01*
X116240195Y-121389951D01*
X116243237Y-121425663D01*
X116246472Y-121441927D01*
X116252679Y-121458400D01*
X116264208Y-121477832D01*
X116283414Y-121502971D01*
X116312646Y-121536564D01*
X116354259Y-121581359D01*
X116410603Y-121640104D01*
X116484031Y-121715549D01*
X116542721Y-121775545D01*
X116834505Y-122073550D01*
X116718829Y-122189226D01*
X116603153Y-122304903D01*
X116154404Y-121856154D01*
X115705655Y-121407405D01*
X115816523Y-121296538D01*
X115927391Y-121185670D01*
X115970854Y-121229134D01*
X116014318Y-121272597D01*
X116018354Y-121193037D01*
X116037313Y-121099376D01*
X116081426Y-121011376D01*
X116146017Y-120933240D01*
X116226411Y-120869168D01*
X116317932Y-120823366D01*
X116415904Y-120800033D01*
X116457915Y-120797946D01*
X116521470Y-120798514D01*
X116525942Y-120729672D01*
X116546848Y-120613864D01*
X116594515Y-120509141D01*
X116670181Y-120412852D01*
X116677830Y-120405085D01*
X116726623Y-120359666D01*
X116776126Y-120319004D01*
X116816297Y-120291299D01*
X116819168Y-120289689D01*
X116915036Y-120252951D01*
X117022696Y-120237372D01*
X117132762Y-120243059D01*
G37*
G36*
X115247638Y-122216665D02*
G01*
X115338472Y-122255014D01*
X115351137Y-122262959D01*
X115355500Y-122272173D01*
X115348861Y-122286822D01*
X115328528Y-122311069D01*
X115291802Y-122349078D01*
X115251219Y-122389782D01*
X115199316Y-122441173D01*
X115163173Y-122474714D01*
X115137677Y-122493916D01*
X115117720Y-122502291D01*
X115098188Y-122503351D01*
X115087445Y-122502290D01*
X115023907Y-122509611D01*
X114956362Y-122545837D01*
X114885782Y-122610423D01*
X114877461Y-122619704D01*
X114840335Y-122665403D01*
X114820826Y-122700800D01*
X114814145Y-122735342D01*
X114813917Y-122744981D01*
X114819506Y-122787164D01*
X114837456Y-122810611D01*
X114869543Y-122814985D01*
X114917542Y-122799954D01*
X114983230Y-122765182D01*
X115068380Y-122710335D01*
X115094915Y-122692058D01*
X115219067Y-122610979D01*
X115327146Y-122552700D01*
X115421756Y-122516714D01*
X115505500Y-122502517D01*
X115580981Y-122509602D01*
X115650803Y-122537464D01*
X115703677Y-122573839D01*
X115775636Y-122650440D01*
X115822710Y-122740680D01*
X115844377Y-122840924D01*
X115840116Y-122947535D01*
X115809403Y-123056877D01*
X115781568Y-123115900D01*
X115739956Y-123180656D01*
X115684568Y-123250684D01*
X115623706Y-123316541D01*
X115565668Y-123368789D01*
X115547516Y-123382142D01*
X115430478Y-123447652D01*
X115312038Y-123487242D01*
X115195459Y-123500639D01*
X115084007Y-123487570D01*
X114980946Y-123447765D01*
X114953774Y-123431621D01*
X114912069Y-123404694D01*
X115027839Y-123288924D01*
X115078991Y-123238235D01*
X115114306Y-123205432D01*
X115138881Y-123187097D01*
X115157812Y-123179814D01*
X115176198Y-123180170D01*
X115187079Y-123182206D01*
X115228134Y-123183305D01*
X115279737Y-123175323D01*
X115298906Y-123170179D01*
X115359222Y-123142380D01*
X115416939Y-123099746D01*
X115467845Y-123047715D01*
X115507729Y-122991720D01*
X115532379Y-122937200D01*
X115537583Y-122889587D01*
X115531515Y-122869951D01*
X115509809Y-122840517D01*
X115481012Y-122826581D01*
X115442225Y-122828960D01*
X115390552Y-122848469D01*
X115323092Y-122885927D01*
X115236950Y-122942151D01*
X115210340Y-122960497D01*
X115102301Y-123031265D01*
X115009939Y-123081684D01*
X114928967Y-123113621D01*
X114855099Y-123128937D01*
X114818331Y-123130951D01*
X114722728Y-123118633D01*
X114642451Y-123080755D01*
X114577103Y-123017064D01*
X114537854Y-122952624D01*
X114507275Y-122857439D01*
X114503564Y-122754093D01*
X114526155Y-122646231D01*
X114574487Y-122537500D01*
X114611026Y-122479797D01*
X114699234Y-122375282D01*
X114798998Y-122293671D01*
X114907021Y-122235984D01*
X115020001Y-122203242D01*
X115134640Y-122196462D01*
X115247638Y-122216665D01*
G37*
%TO.C,J1*%
X136100000Y-113385000D02*
X136740000Y-113385000D01*
X136740000Y-113385000D02*
X136740000Y-114015000D01*
X138900000Y-113385000D02*
X138260000Y-113385000D01*
X136150000Y-110665000D02*
X138850000Y-110665000D01*
%TO.C,C12*%
X133071693Y-134080810D02*
X132919190Y-133928307D01*
X133580810Y-133571693D02*
X133428307Y-133419190D01*
%TO.C,R7*%
X130622659Y-134589940D02*
X130839940Y-134372659D01*
X131160060Y-135127341D02*
X131377341Y-134910060D01*
%TO.C,C35*%
X124080810Y-133428307D02*
X123928307Y-133580810D01*
X123571693Y-132919190D02*
X123419190Y-133071693D01*
%TO.C,C16*%
X115669190Y-124321693D02*
X115821693Y-124169190D01*
X116178307Y-124830810D02*
X116330810Y-124678307D01*
%TO.C,C3*%
X134607836Y-121360000D02*
X134392164Y-121360000D01*
X134607836Y-120640000D02*
X134392164Y-120640000D01*
%TO.C,U4*%
X131646913Y-135396913D02*
X130462510Y-136581317D01*
X131646913Y-135396913D02*
X132106533Y-134937294D01*
X133853087Y-137603087D02*
X133393467Y-138062706D01*
X133853087Y-137603087D02*
X134312706Y-137143467D01*
%TO.C,R4*%
X129877341Y-136410060D02*
X129660060Y-136627341D01*
X129339940Y-135872659D02*
X129122659Y-136089940D01*
D11*
%TO.C,U3*%
X119076000Y-136326000D02*
X119076000Y-133174000D01*
X116924000Y-133174000D02*
X116924000Y-134750000D01*
%TO.C,DP1*%
X136376000Y-119024000D02*
X136376000Y-119976000D01*
X134624000Y-119024000D02*
X134624000Y-119976000D01*
D12*
X136075000Y-118710000D02*
G75*
G03*
X136075000Y-118710000I-75000J0D01*
G01*
G36*
X136140000Y-119600000D02*
G01*
X135940000Y-119600000D01*
X135940000Y-119400000D01*
X136140000Y-119400000D01*
X136140000Y-119600000D01*
G37*
D10*
%TO.C,C32*%
X118178307Y-124169190D02*
X118330810Y-124321693D01*
X117669190Y-124678307D02*
X117821693Y-124830810D01*
%TO.C,C18*%
X133571693Y-130080810D02*
X133419190Y-129928307D01*
X134080810Y-129571693D02*
X133928307Y-129419190D01*
%TO.C,C4*%
X133321693Y-123830810D02*
X133169190Y-123678307D01*
X133830810Y-123321693D02*
X133678307Y-123169190D01*
%TO.C,C11*%
X136428307Y-130419190D02*
X136580810Y-130571693D01*
X135919190Y-130928307D02*
X136071693Y-131080810D01*
%TO.C,C36*%
X127821693Y-135830810D02*
X127669190Y-135678307D01*
X128330810Y-135321693D02*
X128178307Y-135169190D01*
%TO.C,C15*%
X124321693Y-118330810D02*
X124169190Y-118178307D01*
X124830810Y-117821693D02*
X124678307Y-117669190D01*
%TO.C,R6*%
X121160060Y-121122659D02*
X121377341Y-121339940D01*
X120622659Y-121660060D02*
X120839940Y-121877341D01*
%TO.C,C1*%
X136392164Y-120640000D02*
X136607836Y-120640000D01*
X136392164Y-121360000D02*
X136607836Y-121360000D01*
%TO.C,TP2*%
X135200000Y-114000000D02*
G75*
G03*
X135200000Y-114000000I-700000J0D01*
G01*
%TO.C,C29*%
X120428307Y-121919190D02*
X120580810Y-122071693D01*
X119919190Y-122428307D02*
X120071693Y-122580810D01*
%TO.C,R2*%
X130839940Y-132877341D02*
X130622659Y-132660060D01*
X131377341Y-132339940D02*
X131160060Y-132122659D01*
%TO.C,C30*%
X119321693Y-123330810D02*
X119169190Y-123178307D01*
X119830810Y-122821693D02*
X119678307Y-122669190D01*
%TO.C,C20*%
X132321693Y-131330810D02*
X132169190Y-131178307D01*
X132830810Y-130821693D02*
X132678307Y-130669190D01*
%TO.C,C33*%
X116669190Y-125321693D02*
X116821693Y-125169190D01*
X117178307Y-125830810D02*
X117330810Y-125678307D01*
%TO.C,C9*%
X135892164Y-115640000D02*
X136107836Y-115640000D01*
X135892164Y-116360000D02*
X136107836Y-116360000D01*
%TO.C,C10*%
X116640000Y-129107836D02*
X116640000Y-128892164D01*
X117360000Y-129107836D02*
X117360000Y-128892164D01*
%TO.C,Y1*%
X136517767Y-132108579D02*
X134891421Y-130482233D01*
X134891421Y-130482233D02*
X132982233Y-132391421D01*
%TO.C,C23*%
X135821693Y-127830810D02*
X135669190Y-127678307D01*
X136330810Y-127321693D02*
X136178307Y-127169190D01*
%TO.C,R1*%
X122346359Y-134620000D02*
X122653641Y-134620000D01*
X122346359Y-135380000D02*
X122653641Y-135380000D01*
%TO.C,C34*%
X118678307Y-128669190D02*
X118830810Y-128821693D01*
X118169190Y-129178307D02*
X118321693Y-129330810D01*
%TO.C,R3*%
X127089940Y-136627341D02*
X126872659Y-136410060D01*
X127627341Y-136089940D02*
X127410060Y-135872659D01*
%TD*%
%LPC*%
D13*
%TO.C,J2*%
X136250000Y-144000000D03*
X135750000Y-144000000D03*
X135250000Y-144000000D03*
X134750000Y-144000000D03*
X134250000Y-144000000D03*
X133750000Y-144000000D03*
X131250000Y-144000000D03*
X130750000Y-144000000D03*
X130250000Y-144000000D03*
X129750000Y-144000000D03*
X129250000Y-144000000D03*
X128750000Y-144000000D03*
X128250000Y-144000000D03*
X127750000Y-144000000D03*
X127250000Y-144000000D03*
X126750000Y-144000000D03*
X126250000Y-144000000D03*
X125750000Y-144000000D03*
X125250000Y-144000000D03*
X124750000Y-144000000D03*
X124250000Y-144000000D03*
X123750000Y-144000000D03*
X123250000Y-144000000D03*
X122750000Y-144000000D03*
X122250000Y-144000000D03*
X121750000Y-144000000D03*
X121250000Y-144000000D03*
X120750000Y-144000000D03*
X120250000Y-144000000D03*
X119750000Y-144000000D03*
X119250000Y-144000000D03*
X118750000Y-144000000D03*
X118250000Y-144000000D03*
X117750000Y-144000000D03*
D14*
X127000000Y-113250000D03*
%TD*%
D15*
%TO.C,L4*%
X119501302Y-128001301D03*
X117998700Y-126498699D03*
%TD*%
D16*
%TO.C,C22*%
X134910589Y-127910589D03*
X135589411Y-128589411D03*
%TD*%
D17*
%TO.C,C6*%
X135339411Y-115839411D03*
X134660589Y-115160589D03*
%TD*%
D16*
%TO.C,C28*%
X122410589Y-119410589D03*
X123089411Y-120089411D03*
%TD*%
D17*
%TO.C,C14*%
X129839411Y-134339411D03*
X129160589Y-133660589D03*
%TD*%
D18*
%TO.C,U1*%
X127548008Y-132487705D03*
X127830850Y-132204862D03*
X128113693Y-131922019D03*
X128396536Y-131639177D03*
X128679379Y-131356334D03*
X128962221Y-131073491D03*
X129245064Y-130790648D03*
X129527907Y-130507806D03*
X129810749Y-130224963D03*
X130093592Y-129942120D03*
X130376435Y-129659278D03*
X130659278Y-129376435D03*
X130942120Y-129093592D03*
X131224963Y-128810749D03*
X131507806Y-128527907D03*
X131790648Y-128245064D03*
X132073491Y-127962221D03*
X132356334Y-127679379D03*
X132639177Y-127396536D03*
X132922019Y-127113693D03*
X133204862Y-126830850D03*
X133487705Y-126548008D03*
D19*
X133487705Y-125451992D03*
X133204862Y-125169150D03*
X132922019Y-124886307D03*
X132639177Y-124603464D03*
X132356334Y-124320621D03*
X132073491Y-124037779D03*
X131790648Y-123754936D03*
X131507806Y-123472093D03*
X131224963Y-123189251D03*
X130942120Y-122906408D03*
X130659278Y-122623565D03*
X130376435Y-122340722D03*
X130093592Y-122057880D03*
X129810749Y-121775037D03*
X129527907Y-121492194D03*
X129245064Y-121209352D03*
X128962221Y-120926509D03*
X128679379Y-120643666D03*
X128396536Y-120360823D03*
X128113693Y-120077981D03*
X127830850Y-119795138D03*
X127548008Y-119512295D03*
D18*
X126451992Y-119512295D03*
X126169150Y-119795138D03*
X125886307Y-120077981D03*
X125603464Y-120360823D03*
X125320621Y-120643666D03*
X125037779Y-120926509D03*
X124754936Y-121209352D03*
X124472093Y-121492194D03*
X124189251Y-121775037D03*
X123906408Y-122057880D03*
X123623565Y-122340722D03*
X123340722Y-122623565D03*
X123057880Y-122906408D03*
X122775037Y-123189251D03*
X122492194Y-123472093D03*
X122209352Y-123754936D03*
X121926509Y-124037779D03*
X121643666Y-124320621D03*
X121360823Y-124603464D03*
X121077981Y-124886307D03*
X120795138Y-125169150D03*
X120512295Y-125451992D03*
D19*
X120512295Y-126548008D03*
X120795138Y-126830850D03*
X121077981Y-127113693D03*
X121360823Y-127396536D03*
X121643666Y-127679379D03*
X121926509Y-127962221D03*
X122209352Y-128245064D03*
X122492194Y-128527907D03*
X122775037Y-128810749D03*
X123057880Y-129093592D03*
X123340722Y-129376435D03*
X123623565Y-129659278D03*
X123906408Y-129942120D03*
X124189251Y-130224963D03*
X124472093Y-130507806D03*
X124754936Y-130790648D03*
X125037779Y-131073491D03*
X125320621Y-131356334D03*
X125603464Y-131639177D03*
X125886307Y-131922019D03*
X126169150Y-132204862D03*
X126451992Y-132487705D03*
D20*
X127442826Y-129198774D03*
X128491111Y-128150488D03*
X129539397Y-127102203D03*
X130587683Y-126053917D03*
X126346810Y-128102759D03*
X127395096Y-127054473D03*
X128443382Y-126006187D03*
X129491668Y-124957901D03*
X125250795Y-127006743D03*
X126299080Y-125958457D03*
X127347366Y-124910172D03*
X128395652Y-123861886D03*
X124154779Y-125910728D03*
X125203065Y-124862442D03*
X126251351Y-123814156D03*
X127299636Y-122765870D03*
%TD*%
D16*
%TO.C,C19*%
X131410589Y-131410589D03*
X132089411Y-132089411D03*
%TD*%
D21*
%TO.C,L1*%
X136000000Y-122985000D03*
X136000000Y-122015000D03*
%TD*%
D22*
%TO.C,C7*%
X134480000Y-113000000D03*
X133520000Y-113000000D03*
%TD*%
D16*
%TO.C,C31*%
X118410589Y-123410589D03*
X119089411Y-124089411D03*
%TD*%
D22*
%TO.C,C8*%
X134480000Y-110000000D03*
X133520000Y-110000000D03*
%TD*%
D17*
%TO.C,C24*%
X137089411Y-127089411D03*
X136410589Y-126410589D03*
%TD*%
D23*
%TO.C,TP1*%
X137500000Y-115000000D03*
%TD*%
D24*
%TO.C,C5*%
X135500000Y-117980000D03*
X135500000Y-117020000D03*
%TD*%
D17*
%TO.C,C13*%
X129089411Y-135089411D03*
X128410589Y-134410589D03*
%TD*%
D16*
%TO.C,C21*%
X134160589Y-128660589D03*
X134839411Y-129339411D03*
%TD*%
D17*
%TO.C,C17*%
X130589411Y-133589411D03*
X129910589Y-132910589D03*
%TD*%
D22*
%TO.C,C25*%
X133980000Y-122000000D03*
X133020000Y-122000000D03*
%TD*%
D16*
%TO.C,C27*%
X124910589Y-116910589D03*
X125589411Y-117589411D03*
%TD*%
D25*
%TO.C,C26*%
X132020000Y-121000000D03*
X132980000Y-121000000D03*
%TD*%
D16*
%TO.C,C2*%
X134660589Y-124660589D03*
X135339411Y-125339411D03*
%TD*%
D26*
%TO.C,U2*%
X116095000Y-138350000D03*
X117365000Y-138350000D03*
X118635000Y-138350000D03*
X119905000Y-138350000D03*
X119905000Y-131150000D03*
X118635000Y-131150000D03*
X117365000Y-131150000D03*
X116095000Y-131150000D03*
%TD*%
D27*
%TO.C,R5*%
X124139376Y-134360624D03*
X124860624Y-133639376D03*
%TD*%
D28*
%TO.C,J1*%
X137500000Y-113550000D03*
D29*
X136025000Y-112025000D03*
X138975000Y-112025000D03*
%TD*%
D17*
%TO.C,C12*%
X133589411Y-134089411D03*
X132910589Y-133410589D03*
%TD*%
D27*
%TO.C,R7*%
X130639376Y-135110624D03*
X131360624Y-134389376D03*
%TD*%
D30*
%TO.C,C35*%
X124089411Y-132910589D03*
X123410589Y-133589411D03*
%TD*%
D31*
%TO.C,C16*%
X115660589Y-124839411D03*
X116339411Y-124160589D03*
%TD*%
D22*
%TO.C,C3*%
X134980000Y-121000000D03*
X134020000Y-121000000D03*
%TD*%
D32*
%TO.C,U4*%
X131415336Y-136491161D03*
X132758839Y-137834664D03*
X133412913Y-135837087D03*
%TD*%
D33*
%TO.C,R4*%
X129860624Y-135889376D03*
X129139376Y-136610624D03*
%TD*%
D34*
%TO.C,U3*%
X117250000Y-136257000D03*
X117750000Y-136257000D03*
X118250000Y-136257000D03*
X118750000Y-136257000D03*
X118750000Y-133243000D03*
X118250000Y-133243000D03*
X117750000Y-133243000D03*
X117250000Y-133243000D03*
D35*
X118000000Y-134750000D03*
%TD*%
D36*
%TO.C,DP1*%
X136000000Y-119143000D03*
X135500000Y-119143000D03*
X135000000Y-119143000D03*
X135000000Y-119857000D03*
X135500000Y-119857000D03*
X136000000Y-119857000D03*
%TD*%
D16*
%TO.C,C32*%
X117660589Y-124160589D03*
X118339411Y-124839411D03*
%TD*%
D17*
%TO.C,C18*%
X134089411Y-130089411D03*
X133410589Y-129410589D03*
%TD*%
%TO.C,C4*%
X133839411Y-123839411D03*
X133160589Y-123160589D03*
%TD*%
D16*
%TO.C,C11*%
X135910589Y-130410589D03*
X136589411Y-131089411D03*
%TD*%
D17*
%TO.C,C36*%
X128339411Y-135839411D03*
X127660589Y-135160589D03*
%TD*%
%TO.C,C15*%
X124839411Y-118339411D03*
X124160589Y-117660589D03*
%TD*%
D21*
%TO.C,L2*%
X135000000Y-122970000D03*
X135000000Y-122000000D03*
%TD*%
D37*
%TO.C,R6*%
X120639376Y-121139376D03*
X121360624Y-121860624D03*
%TD*%
D25*
%TO.C,C1*%
X136020000Y-121000000D03*
X136980000Y-121000000D03*
%TD*%
D23*
%TO.C,TP2*%
X134500000Y-114000000D03*
%TD*%
D16*
%TO.C,C29*%
X119910589Y-121910589D03*
X120589411Y-122589411D03*
%TD*%
D38*
%TO.C,R2*%
X131360624Y-132860624D03*
X130639376Y-132139376D03*
%TD*%
D17*
%TO.C,C30*%
X119839411Y-123339411D03*
X119160589Y-122660589D03*
%TD*%
%TO.C,C20*%
X132839411Y-131339411D03*
X132160589Y-130660589D03*
%TD*%
D21*
%TO.C,L3*%
X134500000Y-111985000D03*
X134500000Y-111015000D03*
%TD*%
D31*
%TO.C,C33*%
X116660589Y-125839411D03*
X117339411Y-125160589D03*
%TD*%
D25*
%TO.C,C9*%
X135520000Y-116000000D03*
X136480000Y-116000000D03*
%TD*%
D24*
%TO.C,C10*%
X117000000Y-129480000D03*
X117000000Y-128520000D03*
%TD*%
D39*
%TO.C,Y1*%
X134856066Y-131366117D03*
X133866117Y-132356066D03*
X134643934Y-133133883D03*
X135633883Y-132143934D03*
%TD*%
D17*
%TO.C,C23*%
X136339411Y-127839411D03*
X135660589Y-127160589D03*
%TD*%
D40*
%TO.C,R1*%
X121990000Y-135000000D03*
X123010000Y-135000000D03*
%TD*%
D16*
%TO.C,C34*%
X118160589Y-128660589D03*
X118839411Y-129339411D03*
%TD*%
D38*
%TO.C,R3*%
X127610624Y-136610624D03*
X126889376Y-135889376D03*
%TD*%
M02*
