M48
; DRILL file {KiCad 7.0.1} date 2023-06-29T04:52:56 CEST
; FORMAT={-:-/ absolute / metric / decimal}
; #@! TF.CreationDate,2023-06-29T04:52:56+02:00
; #@! TF.GenerationSoftware,Kicad,Pcbnew,7.0.1
; #@! TF.FileFunction,Plated,1,4,PTH
FMAT,2
METRIC
; #@! TA.AperFunction,Plated,PTH,ViaDrill
T1C0.150
; #@! TA.AperFunction,Plated,PTH,ComponentDrill
T2C0.300
; #@! TA.AperFunction,Plated,PTH,ComponentDrill
T3C3.500
%
G90
G05
T1
X115.0Y-110.0
X115.0Y-113.0
X115.0Y-114.0
X115.0Y-115.0
X116.0Y-110.0
X117.0Y-110.0
X117.75Y-116.5
X117.75Y-121.25
X117.75Y-122.0
X117.75Y-141.25
X118.0Y-110.0
X118.0Y-112.0
X118.0Y-113.5
X118.0Y-127.75
X118.0Y-129.48
X118.4Y-124.15
X118.5Y-141.25
X118.5Y-142.0
X119.0Y-110.0
X119.0Y-113.5
X119.0Y-114.5
X119.0Y-115.5
X119.1Y-123.4
X119.25Y-122.0
X120.0Y-110.0
X121.0Y-110.0
X121.0Y-123.75
X121.25Y-120.25
X121.5Y-123.0
X121.75Y-125.25
X122.0Y-110.0
X122.0Y-112.0
X122.0Y-120.25
X122.0Y-142.25
X122.25Y-122.5
X122.5Y-113.5
X122.5Y-114.5
X122.5Y-115.5
X122.5Y-116.75
X122.5Y-124.75
X122.75Y-122.0
X123.0Y-110.0
X123.0Y-123.98
X123.0Y-128.0
X123.0Y-132.0
X123.25Y-116.75
X123.5Y-121.25
X123.5Y-127.5
X123.5Y-131.25
X123.5Y-134.25
X123.75Y-123.5
X123.75Y-142.0
X124.0Y-110.0
X124.0Y-116.75
X124.0Y-128.25
X124.0Y-132.25
X124.25Y-120.5
X124.25Y-124.25
X124.75Y-122.675
X124.75Y-123.325
X124.75Y-128.75
X125.0Y-110.0
X125.0Y-119.75
X125.0Y-135.25
X125.25Y-129.5
X125.25Y-133.0
X125.25Y-142.0
X125.5Y-122.0
X125.5Y-135.75
X126.0Y-110.0
X126.0Y-121.25
X126.0Y-130.0
X126.0Y-136.25
X126.5Y-120.75
X126.5Y-130.75
X126.5Y-136.75
X126.75Y-142.0
X127.0Y-110.0
X127.0Y-120.25
X127.0Y-135.25
X127.0Y-137.25
X127.25Y-131.25
X127.25Y-134.0
X127.5Y-121.0
X127.75Y-118.5
X127.75Y-137.25
X128.0Y-110.0
X128.0Y-130.75
X128.25Y-121.5
X128.25Y-142.0
X128.5Y-118.75
X128.5Y-130.0
X128.5Y-137.25
X128.75Y-122.25
X129.0Y-110.0
X129.0Y-119.5
X129.0Y-132.0
X129.25Y-129.5
X129.25Y-132.75
X129.25Y-138.0
X129.5Y-122.75
X129.5Y-128.75
X129.75Y-120.0
X129.75Y-142.0
X130.0Y-110.0
X130.0Y-123.5
X130.0Y-131.25
X130.0Y-138.0
X130.0Y-138.75
X130.25Y-120.75
X130.25Y-128.25
X130.75Y-124.0
X130.75Y-138.75
X131.0Y-110.0
X131.0Y-121.25
X131.0Y-127.5
X131.25Y-124.75
X131.4Y-132.15
X131.5Y-122.0
X131.5Y-138.75
X131.5Y-139.5
X131.5Y-140.25
X131.75Y-133.25
X132.0Y-110.0
X132.0Y-125.0
X132.15Y-131.35
X132.25Y-140.25
X132.5Y-120.5
X132.5Y-125.5
X132.5Y-133.0
X132.75Y-132.0
X133.0Y-110.0
X133.0Y-126.0
X133.0Y-140.25
X133.5Y-121.5
X133.5Y-141.5
X133.75Y-140.5
X134.1Y-129.4
X134.175Y-139.5
X134.825Y-139.5
X134.9Y-128.6
X135.25Y-130.0
X135.5Y-141.75
X135.6Y-127.9
X136.0Y-110.0
X136.0Y-129.25
X136.0Y-142.25
X136.25Y-132.75
X136.4Y-127.1
X136.75Y-128.5
X136.75Y-141.0
X137.0Y-110.0
X137.0Y-131.5
X137.1Y-126.4
X137.5Y-127.75
X138.0Y-110.0
X139.0Y-110.0
T2
X138.5Y-109.0
T3
X127.0Y-113.25
T0
M30
