%TF.GenerationSoftware,KiCad,Pcbnew,7.0.1*%
%TF.CreationDate,2023-06-21T13:58:20+02:00*%
%TF.ProjectId,rtl872xd-dev-board,72746c38-3732-4786-942d-6465762d626f,0.1.0*%
%TF.SameCoordinates,Original*%
%TF.FileFunction,Legend,Top*%
%TF.FilePolarity,Positive*%
%FSLAX46Y46*%
G04 Gerber Fmt 4.6, Leading zero omitted, Abs format (unit mm)*
G04 Created by KiCad (PCBNEW 7.0.1) date 2023-06-21 13:58:20*
%MOMM*%
%LPD*%
G01*
G04 APERTURE LIST*
G04 Aperture macros list*
%AMRoundRect*
0 Rectangle with rounded corners*
0 $1 Rounding radius*
0 $2 $3 $4 $5 $6 $7 $8 $9 X,Y pos of 4 corners*
0 Add a 4 corners polygon primitive as box body*
4,1,4,$2,$3,$4,$5,$6,$7,$8,$9,$2,$3,0*
0 Add four circle primitives for the rounded corners*
1,1,$1+$1,$2,$3*
1,1,$1+$1,$4,$5*
1,1,$1+$1,$6,$7*
1,1,$1+$1,$8,$9*
0 Add four rect primitives between the rounded corners*
20,1,$1+$1,$2,$3,$4,$5,0*
20,1,$1+$1,$4,$5,$6,$7,0*
20,1,$1+$1,$6,$7,$8,$9,0*
20,1,$1+$1,$8,$9,$2,$3,0*%
%AMHorizOval*
0 Thick line with rounded ends*
0 $1 width*
0 $2 $3 position (X,Y) of the first rounded end (center of the circle)*
0 $4 $5 position (X,Y) of the second rounded end (center of the circle)*
0 Add line between two ends*
20,1,$1,$2,$3,$4,$5,0*
0 Add two circle primitives to create the rounded ends*
1,1,$1,$2,$3*
1,1,$1,$4,$5*%
%AMRotRect*
0 Rectangle, with rotation*
0 The origin of the aperture is its center*
0 $1 length*
0 $2 width*
0 $3 Rotation angle, in degrees counterclockwise*
0 Add horizontal line*
21,1,$1,$2,0,0,$3*%
G04 Aperture macros list end*
%ADD10C,0.120000*%
%ADD11C,0.152000*%
%ADD12C,0.150000*%
%ADD13RoundRect,0.101600X-0.175000X-1.250000X0.175000X-1.250000X0.175000X1.250000X-0.175000X1.250000X0*%
%ADD14C,5.703200*%
%ADD15RoundRect,0.218750X0.424264X0.114905X0.114905X0.424264X-0.424264X-0.114905X-0.114905X-0.424264X0*%
%ADD16RoundRect,0.140000X-0.219203X-0.021213X-0.021213X-0.219203X0.219203X0.021213X0.021213X0.219203X0*%
%ADD17RoundRect,0.140000X0.219203X0.021213X0.021213X0.219203X-0.219203X-0.021213X-0.021213X-0.219203X0*%
%ADD18HorizOval,0.200000X-0.194454X0.194454X0.194454X-0.194454X0*%
%ADD19HorizOval,0.200000X0.194454X0.194454X-0.194454X-0.194454X0*%
%ADD20RotRect,1.550000X1.482500X135.000000*%
%ADD21C,0.990600*%
%ADD22C,0.787400*%
%ADD23RoundRect,0.147500X0.172500X-0.147500X0.172500X0.147500X-0.172500X0.147500X-0.172500X-0.147500X0*%
%ADD24RoundRect,0.140000X0.140000X0.170000X-0.140000X0.170000X-0.140000X-0.170000X0.140000X-0.170000X0*%
%ADD25C,1.000000*%
%ADD26RoundRect,0.140000X0.170000X-0.140000X0.170000X0.140000X-0.170000X0.140000X-0.170000X-0.140000X0*%
%ADD27RoundRect,0.140000X-0.140000X-0.170000X0.140000X-0.170000X0.140000X0.170000X-0.140000X0.170000X0*%
%ADD28RoundRect,0.150000X0.150000X-0.650000X0.150000X0.650000X-0.150000X0.650000X-0.150000X-0.650000X0*%
%ADD29RoundRect,0.135000X0.035355X-0.226274X0.226274X-0.035355X-0.035355X0.226274X-0.226274X0.035355X0*%
%ADD30R,1.000000X1.050000*%
%ADD31R,1.050000X2.200000*%
%ADD32RoundRect,0.140000X-0.021213X0.219203X-0.219203X0.021213X0.021213X-0.219203X0.219203X-0.021213X0*%
%ADD33RoundRect,0.140000X0.021213X-0.219203X0.219203X-0.021213X-0.021213X0.219203X-0.219203X0.021213X0*%
%ADD34RoundRect,0.150000X-0.309359X-0.521491X0.521491X0.309359X0.309359X0.521491X-0.521491X-0.309359X0*%
%ADD35RoundRect,0.135000X-0.035355X0.226274X-0.226274X0.035355X0.035355X-0.226274X0.226274X-0.035355X0*%
%ADD36R,0.280000X0.600000*%
%ADD37R,1.700000X0.300000*%
%ADD38R,0.280000X0.265000*%
%ADD39RoundRect,0.135000X-0.226274X-0.035355X-0.035355X-0.226274X0.226274X0.035355X0.035355X0.226274X0*%
%ADD40RoundRect,0.135000X0.226274X0.035355X0.035355X0.226274X-0.226274X-0.035355X-0.035355X-0.226274X0*%
%ADD41RotRect,0.900000X0.800000X225.000000*%
%ADD42RoundRect,0.135000X-0.135000X-0.185000X0.135000X-0.185000X0.135000X0.185000X-0.135000X0.185000X0*%
G04 APERTURE END LIST*
D10*
%TO.C,L4*%
X118636597Y-127928555D02*
X118071446Y-127363404D01*
X119428556Y-127136596D02*
X118863405Y-126571445D01*
%TO.C,C22*%
X135428307Y-127919190D02*
X135580810Y-128071693D01*
X134919190Y-128428307D02*
X135071693Y-128580810D01*
%TO.C,C6*%
X134821693Y-115830810D02*
X134669190Y-115678307D01*
X135330810Y-115321693D02*
X135178307Y-115169190D01*
%TO.C,C28*%
X122928307Y-119419190D02*
X123080810Y-119571693D01*
X122419190Y-119928307D02*
X122571693Y-120080810D01*
%TO.C,C14*%
X129321693Y-134330810D02*
X129169190Y-134178307D01*
X129830810Y-133821693D02*
X129678307Y-133669190D01*
%TO.C,U1*%
X134283200Y-126000000D02*
X133894291Y-126388909D01*
X126611091Y-132894291D02*
X127159099Y-133442299D01*
X133894291Y-125611091D02*
X134283200Y-126000000D01*
X120105709Y-126388909D02*
X119716800Y-126000000D01*
X127388909Y-119105709D02*
X127000000Y-118716800D01*
X119716800Y-126000000D02*
X120105709Y-125611091D01*
X127000000Y-118716800D02*
X126611091Y-119105709D01*
%TO.C,J4*%
X117770000Y-115405000D02*
X117135000Y-115405000D01*
X117770000Y-114770000D02*
X117770000Y-115405000D01*
%TO.C,C19*%
X131928307Y-131419190D02*
X132080810Y-131571693D01*
X131419190Y-131928307D02*
X131571693Y-132080810D01*
%TO.C,C7*%
X134107836Y-113360000D02*
X133892164Y-113360000D01*
X134107836Y-112640000D02*
X133892164Y-112640000D01*
%TO.C,C31*%
X118928307Y-123419190D02*
X119080810Y-123571693D01*
X118419190Y-123928307D02*
X118571693Y-124080810D01*
%TO.C,C8*%
X134107836Y-110360000D02*
X133892164Y-110360000D01*
X134107836Y-109640000D02*
X133892164Y-109640000D01*
%TO.C,J3*%
X121770000Y-115405000D02*
X121135000Y-115405000D01*
X121770000Y-114770000D02*
X121770000Y-115405000D01*
%TO.C,C24*%
X136571693Y-127080810D02*
X136419190Y-126928307D01*
X137080810Y-126571693D02*
X136928307Y-126419190D01*
%TO.C,TP1*%
X138200000Y-115000000D02*
G75*
G03*
X138200000Y-115000000I-700000J0D01*
G01*
%TO.C,C5*%
X135140000Y-117607836D02*
X135140000Y-117392164D01*
X135860000Y-117607836D02*
X135860000Y-117392164D01*
%TO.C,C13*%
X128571693Y-135080810D02*
X128419190Y-134928307D01*
X129080810Y-134571693D02*
X128928307Y-134419190D01*
%TO.C,C21*%
X134678307Y-128669190D02*
X134830810Y-128821693D01*
X134169190Y-129178307D02*
X134321693Y-129330810D01*
%TO.C,C17*%
X130071693Y-133580810D02*
X129919190Y-133428307D01*
X130580810Y-133071693D02*
X130428307Y-132919190D01*
%TO.C,kibuzzard-6492E3B2*%
G36*
X116248540Y-118054293D02*
G01*
X116121857Y-118054293D01*
X116184722Y-117923800D01*
X116248540Y-118054293D01*
G37*
G36*
X116933388Y-117835694D02*
G01*
X116961010Y-117899035D01*
X116933388Y-117961900D01*
X116878142Y-117982855D01*
X116756222Y-117982855D01*
X116756222Y-117814262D01*
X116876237Y-117814262D01*
X116933388Y-117835694D01*
G37*
G36*
X117028161Y-118553720D02*
G01*
X116429039Y-118553720D01*
X115473681Y-118553720D01*
X115167452Y-118553720D01*
X114969015Y-118553720D01*
X114610663Y-118016192D01*
X115167452Y-118016192D01*
X115172275Y-118078343D01*
X115186741Y-118137160D01*
X115210851Y-118192643D01*
X115244605Y-118244793D01*
X115287348Y-118289560D01*
X115341284Y-118324803D01*
X115404149Y-118347663D01*
X115473681Y-118355283D01*
X115543333Y-118347782D01*
X115606555Y-118325279D01*
X115661086Y-118290632D01*
X115676321Y-118275272D01*
X115835155Y-118275272D01*
X115848966Y-118307658D01*
X115890400Y-118336233D01*
X115941359Y-118352425D01*
X115971839Y-118343376D01*
X115988984Y-118325755D01*
X116003747Y-118298132D01*
X116053277Y-118195263D01*
X116317120Y-118195263D01*
X116366650Y-118298132D01*
X116381414Y-118326708D01*
X116398559Y-118344805D01*
X116429039Y-118353377D01*
X116479997Y-118337185D01*
X116521431Y-118307896D01*
X116535242Y-118275272D01*
X116529527Y-118258128D01*
X116587630Y-118258128D01*
X116593345Y-118307658D01*
X116618586Y-118334089D01*
X116671450Y-118342900D01*
X116720504Y-118336471D01*
X116745745Y-118317183D01*
X116754794Y-118291941D01*
X116756222Y-118259080D01*
X116756222Y-118151448D01*
X116876237Y-118151448D01*
X116905765Y-118149542D01*
X116942807Y-118237278D01*
X116967572Y-118294746D01*
X116980060Y-118321945D01*
X116997681Y-118340519D01*
X117028161Y-118349567D01*
X117077215Y-118336233D01*
X117121506Y-118308610D01*
X117136270Y-118275272D01*
X117121982Y-118225743D01*
X117095312Y-118165100D01*
X117073723Y-118115252D01*
X117057213Y-118076200D01*
X117096900Y-118025612D01*
X117120712Y-117966557D01*
X117128650Y-117899035D01*
X117122459Y-117839980D01*
X117103885Y-117786640D01*
X117075786Y-117741396D01*
X117047687Y-117713297D01*
X117164845Y-117713297D01*
X117169607Y-117753302D01*
X117188657Y-117775686D01*
X117233425Y-117782830D01*
X117416305Y-117782830D01*
X117416305Y-118260985D01*
X117417734Y-118293846D01*
X117426306Y-118318611D01*
X117451071Y-118338138D01*
X117498220Y-118343853D01*
X117545845Y-118338138D01*
X117571086Y-118318611D01*
X117579659Y-118294322D01*
X117581087Y-118261938D01*
X117581087Y-117782830D01*
X117763015Y-117782830D01*
X117811593Y-117774257D01*
X117827785Y-117753779D01*
X117832547Y-117714250D01*
X117827785Y-117674245D01*
X117808735Y-117651861D01*
X117763968Y-117644717D01*
X117234377Y-117644717D01*
X117185800Y-117653290D01*
X117169607Y-117673769D01*
X117164845Y-117713297D01*
X117047687Y-117713297D01*
X117041020Y-117706630D01*
X116987786Y-117672763D01*
X116933493Y-117652443D01*
X116878142Y-117645670D01*
X116672402Y-117645670D01*
X116623349Y-117652099D01*
X116598107Y-117671387D01*
X116589059Y-117696629D01*
X116587630Y-117729490D01*
X116587630Y-118258128D01*
X116529527Y-118258128D01*
X116519050Y-118226695D01*
X116261875Y-117695200D01*
X116230442Y-117658052D01*
X116185675Y-117645670D01*
X116140431Y-117659005D01*
X116108522Y-117694247D01*
X115851347Y-118226695D01*
X115835155Y-118275272D01*
X115676321Y-118275272D01*
X115704662Y-118246698D01*
X115738833Y-118193834D01*
X115763241Y-118138113D01*
X115777886Y-118079534D01*
X115782767Y-118018097D01*
X115782767Y-117730442D01*
X115777052Y-117680912D01*
X115764670Y-117660910D01*
X115739905Y-117649480D01*
X115696566Y-117644717D01*
X115651322Y-117650432D01*
X115623700Y-117671387D01*
X115614175Y-117723775D01*
X115614175Y-118015240D01*
X115605602Y-118078819D01*
X115579885Y-118134302D01*
X115536784Y-118172879D01*
X115476062Y-118185737D01*
X115408435Y-118169545D01*
X115365572Y-118126682D01*
X115344141Y-118072866D01*
X115336997Y-118016192D01*
X115336997Y-117730442D01*
X115325567Y-117670435D01*
X115300802Y-117650432D01*
X115252225Y-117644717D01*
X115203647Y-117650432D01*
X115177930Y-117670435D01*
X115168881Y-117695676D01*
X115167452Y-117729490D01*
X115167452Y-118016192D01*
X114610663Y-118016192D01*
X114599868Y-118000000D01*
X114969015Y-117446280D01*
X115167452Y-117446280D01*
X117832547Y-117446280D01*
X118030985Y-117446280D01*
X118400132Y-118000000D01*
X118030985Y-118553720D01*
X117832547Y-118553720D01*
X117498220Y-118553720D01*
X117028161Y-118553720D01*
G37*
%TO.C,C25*%
X133607836Y-122360000D02*
X133392164Y-122360000D01*
X133607836Y-121640000D02*
X133392164Y-121640000D01*
%TO.C,C27*%
X125428307Y-116919190D02*
X125580810Y-117071693D01*
X124919190Y-117428307D02*
X125071693Y-117580810D01*
%TO.C,C26*%
X132392164Y-120640000D02*
X132607836Y-120640000D01*
X132392164Y-121360000D02*
X132607836Y-121360000D01*
%TO.C,C2*%
X135178307Y-124669190D02*
X135330810Y-124821693D01*
X134669190Y-125178307D02*
X134821693Y-125330810D01*
%TO.C,U2*%
X115275000Y-137475000D02*
X115535000Y-137475000D01*
X115535000Y-137475000D02*
X115535000Y-139150000D01*
X120725000Y-137475000D02*
X120465000Y-137475000D01*
X115275000Y-134750000D02*
X115275000Y-137475000D01*
X115275000Y-134750000D02*
X115275000Y-132025000D01*
X120725000Y-134750000D02*
X120725000Y-137475000D01*
X120725000Y-134750000D02*
X120725000Y-132025000D01*
X115275000Y-132025000D02*
X115535000Y-132025000D01*
X120725000Y-132025000D02*
X120465000Y-132025000D01*
%TO.C,R5*%
X124122659Y-133839940D02*
X124339940Y-133622659D01*
X124660060Y-134377341D02*
X124877341Y-134160060D01*
%TO.C,G\u002A\u002A\u002A*%
G36*
X137738447Y-138979717D02*
G01*
X137738447Y-139143974D01*
X137589124Y-139143974D01*
X137439800Y-139143974D01*
X137439800Y-138979717D01*
X137439800Y-138815461D01*
X137589124Y-138815461D01*
X137738447Y-138815461D01*
X137738447Y-138979717D01*
G37*
G36*
X138227483Y-134488685D02*
G01*
X139134626Y-134492533D01*
X139138865Y-134653057D01*
X139143103Y-134813580D01*
X138231722Y-134813580D01*
X137320341Y-134813580D01*
X137320341Y-134649208D01*
X137320341Y-134484836D01*
X138227483Y-134488685D01*
G37*
G36*
X137738447Y-131423386D02*
G01*
X137738447Y-131588183D01*
X137588618Y-131588183D01*
X137438789Y-131588183D01*
X137443028Y-131427660D01*
X137447266Y-131267137D01*
X137592857Y-131262863D01*
X137738447Y-131258589D01*
X137738447Y-131423386D01*
G37*
G36*
X139138865Y-131427660D02*
G01*
X139143103Y-131588183D01*
X138507466Y-131588183D01*
X137871829Y-131588183D01*
X137876067Y-131427660D01*
X137880305Y-131267137D01*
X138507466Y-131267137D01*
X139134626Y-131267137D01*
X139138865Y-131427660D01*
G37*
G36*
X139142092Y-138972720D02*
G01*
X139140807Y-139051309D01*
X139136733Y-139103024D01*
X139129541Y-139130751D01*
X139123412Y-139137147D01*
X139104865Y-139138604D01*
X139059705Y-139139775D01*
X138991182Y-139140642D01*
X138902546Y-139141189D01*
X138797047Y-139141398D01*
X138677936Y-139141253D01*
X138548464Y-139140738D01*
X138492519Y-139140411D01*
X137880305Y-139136508D01*
X137876067Y-138975984D01*
X137871829Y-138815461D01*
X138506961Y-138815461D01*
X139142092Y-138815461D01*
X139142092Y-138972720D01*
G37*
G36*
X139138865Y-128657701D02*
G01*
X139134626Y-128818224D01*
X138716519Y-128825690D01*
X138592458Y-128828054D01*
X138494617Y-128830393D01*
X138419353Y-128832995D01*
X138363025Y-128836146D01*
X138321989Y-128840131D01*
X138292602Y-128845239D01*
X138271222Y-128851754D01*
X138254206Y-128859964D01*
X138250123Y-128862365D01*
X138199186Y-128909204D01*
X138168099Y-128971589D01*
X138156820Y-129042790D01*
X138165311Y-129116075D01*
X138193529Y-129184713D01*
X138241436Y-129241972D01*
X138252456Y-129250783D01*
X138266061Y-129259729D01*
X138282594Y-129266837D01*
X138305626Y-129272403D01*
X138338730Y-129276716D01*
X138385476Y-129280072D01*
X138449436Y-129282761D01*
X138534180Y-129285077D01*
X138643280Y-129287313D01*
X138713846Y-129288595D01*
X139134626Y-129296061D01*
X139138865Y-129456584D01*
X139143103Y-129617107D01*
X138507449Y-129617107D01*
X137871794Y-129617107D01*
X137876050Y-129464050D01*
X137880305Y-129310993D01*
X137928872Y-129306311D01*
X137977438Y-129301629D01*
X137941834Y-129254048D01*
X137896238Y-129187029D01*
X137868734Y-129127463D01*
X137855246Y-129063067D01*
X137851696Y-128982481D01*
X137864434Y-128860891D01*
X137902544Y-128754944D01*
X137965882Y-128664896D01*
X138054308Y-128591005D01*
X138076265Y-128577439D01*
X138116234Y-128555492D01*
X138155793Y-128537926D01*
X138198801Y-128524261D01*
X138249117Y-128514019D01*
X138310601Y-128506719D01*
X138387111Y-128501882D01*
X138482508Y-128499028D01*
X138600651Y-128497678D01*
X138720758Y-128497355D01*
X139143103Y-128497178D01*
X139138865Y-128657701D01*
G37*
G36*
X137871794Y-136321752D02*
G01*
X137876050Y-136168695D01*
X137880305Y-136015637D01*
X137935873Y-136011029D01*
X137991440Y-136006420D01*
X137939914Y-135928815D01*
X137906921Y-135868470D01*
X137877470Y-135796396D01*
X137863286Y-135749492D01*
X137849836Y-135686680D01*
X137848956Y-135675763D01*
X138156874Y-135675763D01*
X138165336Y-135753852D01*
X138194681Y-135828489D01*
X138245810Y-135895541D01*
X138319627Y-135950877D01*
X138361768Y-135971393D01*
X138423483Y-135987083D01*
X138499601Y-135992418D01*
X138576529Y-135987444D01*
X138640676Y-135972212D01*
X138645266Y-135970378D01*
X138732845Y-135920275D01*
X138798690Y-135854400D01*
X138841039Y-135776742D01*
X138858133Y-135691288D01*
X138848210Y-135602026D01*
X138830113Y-135551677D01*
X138779425Y-135474526D01*
X138707487Y-135417110D01*
X138616464Y-135380622D01*
X138508519Y-135366259D01*
X138494054Y-135366078D01*
X138396187Y-135378124D01*
X138313784Y-135411505D01*
X138247748Y-135462091D01*
X138198983Y-135525751D01*
X138168390Y-135598352D01*
X138156874Y-135675763D01*
X137848956Y-135675763D01*
X137845783Y-135636419D01*
X137850579Y-135583104D01*
X137856238Y-135549794D01*
X137894702Y-135418546D01*
X137957906Y-135303041D01*
X138044112Y-135205208D01*
X138151582Y-135126977D01*
X138278577Y-135070274D01*
X138292304Y-135065856D01*
X138379055Y-135047350D01*
X138480663Y-135038702D01*
X138583647Y-135040348D01*
X138674524Y-135052724D01*
X138677476Y-135053393D01*
X138795375Y-135093978D01*
X138903273Y-135156933D01*
X138997199Y-135238141D01*
X139073181Y-135333484D01*
X139127248Y-135438846D01*
X139155247Y-135548670D01*
X139158639Y-135659748D01*
X139142327Y-135768368D01*
X139108299Y-135866900D01*
X139058540Y-135947720D01*
X139048210Y-135959641D01*
X139017427Y-135993239D01*
X139356009Y-135993239D01*
X139694591Y-135993239D01*
X139694591Y-136157495D01*
X139694591Y-136321752D01*
X138783193Y-136321752D01*
X138499601Y-136321752D01*
X137871794Y-136321752D01*
G37*
G36*
X138474389Y-131076360D02*
G01*
X138348024Y-131057843D01*
X138229644Y-131016541D01*
X138122069Y-130955155D01*
X138028118Y-130876386D01*
X137950611Y-130782936D01*
X137892367Y-130677507D01*
X137856206Y-130562799D01*
X137848208Y-130476641D01*
X138149771Y-130476641D01*
X138172983Y-130555561D01*
X138220414Y-130628380D01*
X138291863Y-130690680D01*
X138326863Y-130711526D01*
X138369137Y-130729734D01*
X138416699Y-130739854D01*
X138479918Y-130743749D01*
X138507466Y-130743986D01*
X138578558Y-130741819D01*
X138630387Y-130734075D01*
X138673324Y-130718890D01*
X138688068Y-130711526D01*
X138746091Y-130672275D01*
X138798010Y-130622221D01*
X138836290Y-130569642D01*
X138852001Y-130531442D01*
X138860539Y-130496000D01*
X138866447Y-130475720D01*
X138868537Y-130440658D01*
X138859235Y-130390057D01*
X138841142Y-130334761D01*
X138823595Y-130297143D01*
X138783816Y-130245653D01*
X138727053Y-130198630D01*
X138717690Y-130192616D01*
X138679690Y-130170665D01*
X138646404Y-130157196D01*
X138608422Y-130150166D01*
X138556333Y-130147532D01*
X138508637Y-130147207D01*
X138440615Y-130148185D01*
X138393012Y-130152373D01*
X138356413Y-130161657D01*
X138321400Y-130177919D01*
X138303121Y-130188329D01*
X138227453Y-130247464D01*
X138176805Y-130318174D01*
X138150978Y-130396039D01*
X138149771Y-130476641D01*
X137848208Y-130476641D01*
X137844947Y-130441514D01*
X137854287Y-130349213D01*
X137893581Y-130214135D01*
X137956797Y-130094911D01*
X138041324Y-129993694D01*
X138144547Y-129912636D01*
X138263855Y-129853888D01*
X138396634Y-129819604D01*
X138507466Y-129811228D01*
X138649999Y-129825012D01*
X138781472Y-129865764D01*
X138899747Y-129932580D01*
X138995630Y-130016904D01*
X139065647Y-130103695D01*
X139114164Y-130194774D01*
X139147051Y-130301511D01*
X139150410Y-130316780D01*
X139163793Y-130386840D01*
X139169100Y-130441046D01*
X139166393Y-130492282D01*
X139155733Y-130553428D01*
X139151613Y-130572780D01*
X139109199Y-130700858D01*
X139042206Y-130814247D01*
X138953280Y-130910540D01*
X138845065Y-130987332D01*
X138720204Y-131042215D01*
X138605921Y-131069391D01*
X138507466Y-131074607D01*
X138474389Y-131076360D01*
G37*
G36*
X138281364Y-134241875D02*
G01*
X138161719Y-134184220D01*
X138057747Y-134106229D01*
X137971868Y-134011067D01*
X137906501Y-133901900D01*
X137864068Y-133781892D01*
X137846987Y-133654210D01*
X137848587Y-133628954D01*
X138137277Y-133628954D01*
X138144533Y-133714796D01*
X138161335Y-133767982D01*
X138190944Y-133815234D01*
X138229665Y-133857777D01*
X138270870Y-133895358D01*
X138308824Y-133923872D01*
X138332422Y-133936027D01*
X138365608Y-133944705D01*
X138365608Y-133639989D01*
X138365226Y-133548254D01*
X138364158Y-133467580D01*
X138362525Y-133402394D01*
X138360444Y-133357121D01*
X138358036Y-133336185D01*
X138357400Y-133335273D01*
X138335356Y-133342629D01*
X138299479Y-133360673D01*
X138260680Y-133383371D01*
X138229870Y-133404689D01*
X138225955Y-133407967D01*
X138180134Y-133466311D01*
X138149814Y-133542839D01*
X138137277Y-133628954D01*
X137848587Y-133628954D01*
X137854017Y-133543241D01*
X137888603Y-133408602D01*
X137946971Y-133290734D01*
X138027219Y-133191177D01*
X138127440Y-133111469D01*
X138245731Y-133053148D01*
X138380186Y-133017753D01*
X138518069Y-133006760D01*
X138634391Y-133006760D01*
X138634391Y-133477131D01*
X138634847Y-133627404D01*
X138636226Y-133748279D01*
X138638542Y-133840211D01*
X138641810Y-133903652D01*
X138646047Y-133939056D01*
X138650065Y-133947501D01*
X138684181Y-133937534D01*
X138728166Y-133911894D01*
X138771762Y-133876971D01*
X138785743Y-133862973D01*
X138839833Y-133789153D01*
X138867631Y-133709200D01*
X138873309Y-133641649D01*
X138864270Y-133551496D01*
X138835329Y-133478819D01*
X138785554Y-133418341D01*
X138738918Y-133374483D01*
X138738918Y-133205554D01*
X138740240Y-133126569D01*
X138744052Y-133070896D01*
X138750121Y-133041080D01*
X138754347Y-133036625D01*
X138781158Y-133044279D01*
X138823875Y-133064070D01*
X138873775Y-133091238D01*
X138922137Y-133121026D01*
X138960240Y-133148673D01*
X138961240Y-133149510D01*
X139036269Y-133230739D01*
X139096150Y-133332103D01*
X139138809Y-133446885D01*
X139162170Y-133568367D01*
X139164159Y-133689832D01*
X139152399Y-133768312D01*
X139108830Y-133896984D01*
X139041716Y-134011232D01*
X138954535Y-134108664D01*
X138850765Y-134186888D01*
X138733881Y-134243514D01*
X138607361Y-134276149D01*
X138474682Y-134282402D01*
X138414261Y-134276028D01*
X138365608Y-134263525D01*
X138281364Y-134241875D01*
G37*
G36*
X139137405Y-131751477D02*
G01*
X139139230Y-131789569D01*
X139139777Y-131846057D01*
X139138910Y-131915215D01*
X139138819Y-131919232D01*
X139134626Y-132100958D01*
X138929276Y-132226725D01*
X138860608Y-132269692D01*
X138802563Y-132307759D01*
X138759243Y-132338095D01*
X138734748Y-132357865D01*
X138730900Y-132363775D01*
X138745414Y-132375079D01*
X138780965Y-132398965D01*
X138833056Y-132432519D01*
X138897193Y-132472827D01*
X138939983Y-132499286D01*
X139142092Y-132623514D01*
X139142092Y-132801802D01*
X139141663Y-132877534D01*
X139139958Y-132927907D01*
X139136354Y-132957421D01*
X139130228Y-132970575D01*
X139120955Y-132971870D01*
X139118624Y-132971085D01*
X139100075Y-132960420D01*
X139060619Y-132935322D01*
X139003981Y-132898241D01*
X138933886Y-132851633D01*
X138854058Y-132797949D01*
X138798733Y-132760434D01*
X138715206Y-132704031D01*
X138639517Y-132653712D01*
X138575253Y-132611799D01*
X138526004Y-132580615D01*
X138495361Y-132562481D01*
X138487022Y-132558789D01*
X138470768Y-132566859D01*
X138433617Y-132589478D01*
X138379269Y-132624259D01*
X138311425Y-132668814D01*
X138233787Y-132720757D01*
X138190952Y-132749772D01*
X138109312Y-132805250D01*
X138035353Y-132855413D01*
X137972850Y-132897704D01*
X137925582Y-132929571D01*
X137897327Y-132948459D01*
X137891505Y-132952241D01*
X137883458Y-132950803D01*
X137877961Y-132932476D01*
X137874628Y-132893680D01*
X137873076Y-132830835D01*
X137872839Y-132778364D01*
X137872839Y-132593002D01*
X138052160Y-132484661D01*
X138117442Y-132444713D01*
X138173178Y-132409649D01*
X138214518Y-132382594D01*
X138236611Y-132366672D01*
X138238833Y-132364424D01*
X138229451Y-132352880D01*
X138198674Y-132329194D01*
X138150824Y-132296406D01*
X138090226Y-132257557D01*
X138063245Y-132240915D01*
X137880305Y-132129303D01*
X137876113Y-131948337D01*
X137875225Y-131878811D01*
X137875871Y-131821655D01*
X137877888Y-131782607D01*
X137881111Y-131767403D01*
X137881286Y-131767372D01*
X137895751Y-131775407D01*
X137931380Y-131797978D01*
X137984674Y-131832785D01*
X138052130Y-131877526D01*
X138130247Y-131929900D01*
X138188657Y-131969371D01*
X138486663Y-132171370D01*
X138806266Y-131954438D01*
X138892701Y-131895986D01*
X138970929Y-131843497D01*
X139037588Y-131799192D01*
X139089319Y-131765293D01*
X139122761Y-131744021D01*
X139134440Y-131737507D01*
X139137405Y-131751477D01*
G37*
G36*
X139138873Y-136765180D02*
G01*
X139134626Y-136926513D01*
X138716519Y-136933980D01*
X138592458Y-136936343D01*
X138494617Y-136938683D01*
X138419353Y-136941284D01*
X138363025Y-136944435D01*
X138321989Y-136948421D01*
X138292602Y-136953528D01*
X138271222Y-136960043D01*
X138254206Y-136968253D01*
X138250123Y-136970655D01*
X138199189Y-137017488D01*
X138167990Y-137079841D01*
X138156500Y-137150846D01*
X138164689Y-137223634D01*
X138192529Y-137291336D01*
X138239991Y-137347083D01*
X138251723Y-137356114D01*
X138266588Y-137365917D01*
X138282954Y-137373671D01*
X138304458Y-137379696D01*
X138334737Y-137384310D01*
X138377429Y-137387833D01*
X138436173Y-137390583D01*
X138514606Y-137392881D01*
X138616365Y-137395044D01*
X138716519Y-137396884D01*
X139134626Y-137404350D01*
X139138854Y-137563801D01*
X139143081Y-137723251D01*
X138735679Y-137728057D01*
X138613199Y-137729656D01*
X138516770Y-137731415D01*
X138442578Y-137733617D01*
X138386809Y-137736545D01*
X138345649Y-137740483D01*
X138315283Y-137745712D01*
X138291899Y-137752517D01*
X138271683Y-137761180D01*
X138268547Y-137762727D01*
X138209527Y-137807034D01*
X138172060Y-137866400D01*
X138156183Y-137935174D01*
X138161935Y-138007705D01*
X138189353Y-138078339D01*
X138238474Y-138141427D01*
X138265877Y-138164529D01*
X138279665Y-138173741D01*
X138295702Y-138181001D01*
X138317595Y-138186589D01*
X138348951Y-138190784D01*
X138393375Y-138193868D01*
X138454475Y-138196118D01*
X138535855Y-138197816D01*
X138641124Y-138199242D01*
X138725048Y-138200165D01*
X139142092Y-138204564D01*
X139142092Y-138368155D01*
X139142092Y-138531746D01*
X138507466Y-138531746D01*
X137872839Y-138531746D01*
X137872839Y-138374956D01*
X137872839Y-138218165D01*
X137934306Y-138218165D01*
X137995773Y-138218165D01*
X137942369Y-138159053D01*
X137889547Y-138079419D01*
X137858514Y-137986001D01*
X137848936Y-137885078D01*
X137860478Y-137782925D01*
X137892806Y-137685823D01*
X137945584Y-137600047D01*
X137973814Y-137568865D01*
X138019156Y-137524327D01*
X137973639Y-137472486D01*
X137906534Y-137375815D01*
X137866189Y-137268058D01*
X137851606Y-137146468D01*
X137851523Y-137135567D01*
X137853909Y-137068949D01*
X137860160Y-137005193D01*
X137868975Y-136957197D01*
X137869867Y-136954029D01*
X137911678Y-136860263D01*
X137976789Y-136773119D01*
X138058639Y-136699312D01*
X138150663Y-136645560D01*
X138183707Y-136632845D01*
X138219349Y-136626297D01*
X138284039Y-136620715D01*
X138377968Y-136616091D01*
X138501325Y-136612416D01*
X138654302Y-136609681D01*
X138690901Y-136609217D01*
X139143119Y-136603847D01*
X139138873Y-136765180D01*
G37*
G36*
X138801281Y-139361221D02*
G01*
X138898377Y-139391744D01*
X138984581Y-139447306D01*
X139056953Y-139525704D01*
X139112552Y-139624738D01*
X139134606Y-139686156D01*
X139150971Y-139761370D01*
X139161323Y-139850052D01*
X139164855Y-139939656D01*
X139160761Y-140017640D01*
X139157367Y-140039917D01*
X139120932Y-140168998D01*
X139065176Y-140280742D01*
X138992216Y-140372649D01*
X138904166Y-140442217D01*
X138803145Y-140486945D01*
X138772516Y-140494743D01*
X138723985Y-140505193D01*
X138723985Y-140341469D01*
X138724313Y-140269457D01*
X138726089Y-140221290D01*
X138730501Y-140190948D01*
X138738738Y-140172412D01*
X138751990Y-140159663D01*
X138761124Y-140153409D01*
X138790931Y-140125155D01*
X138821776Y-140083023D01*
X138831693Y-140065831D01*
X138854686Y-140003524D01*
X138865352Y-139932565D01*
X138864556Y-139859777D01*
X138853164Y-139791981D01*
X138832042Y-139735999D01*
X138802055Y-139698652D01*
X138783879Y-139689058D01*
X138747718Y-139683593D01*
X138717501Y-139694102D01*
X138691757Y-139723210D01*
X138669013Y-139773544D01*
X138647799Y-139847732D01*
X138626643Y-139948400D01*
X138620800Y-139980188D01*
X138594445Y-140106624D01*
X138564787Y-140207586D01*
X138530114Y-140287424D01*
X138488712Y-140350487D01*
X138464137Y-140377910D01*
X138387825Y-140436801D01*
X138304277Y-140466782D01*
X138213033Y-140467954D01*
X138139713Y-140450141D01*
X138050785Y-140404458D01*
X137975084Y-140334005D01*
X137914789Y-140241761D01*
X137872080Y-140130701D01*
X137857115Y-140064061D01*
X137845584Y-139927785D01*
X137858420Y-139799534D01*
X137894013Y-139682360D01*
X137950750Y-139579318D01*
X138027018Y-139493462D01*
X138121205Y-139427846D01*
X138212551Y-139390734D01*
X138227125Y-139387396D01*
X138236725Y-139390827D01*
X138242389Y-139405879D01*
X138245156Y-139437402D01*
X138246064Y-139490248D01*
X138246149Y-139547726D01*
X138245787Y-139620766D01*
X138243947Y-139670040D01*
X138239497Y-139701646D01*
X138231307Y-139721680D01*
X138218245Y-139736241D01*
X138209899Y-139743087D01*
X138170148Y-139793192D01*
X138148002Y-139866569D01*
X138143763Y-139962146D01*
X138144442Y-139974592D01*
X138150504Y-140033158D01*
X138161739Y-140071983D01*
X138181439Y-140101132D01*
X138188094Y-140108109D01*
X138221874Y-140133985D01*
X138251146Y-140137872D01*
X138276928Y-140118276D01*
X138300240Y-140073707D01*
X138322100Y-140002671D01*
X138343528Y-139903678D01*
X138349367Y-139871991D01*
X138379824Y-139726871D01*
X138415038Y-139609238D01*
X138456492Y-139516893D01*
X138505669Y-139447638D01*
X138564052Y-139399275D01*
X138633125Y-139369605D01*
X138696233Y-139357938D01*
X138801281Y-139361221D01*
G37*
%TO.C,J1*%
X136100000Y-113385000D02*
X136740000Y-113385000D01*
X136740000Y-113385000D02*
X136740000Y-114015000D01*
X138900000Y-113385000D02*
X138260000Y-113385000D01*
X136150000Y-110665000D02*
X138850000Y-110665000D01*
%TO.C,C12*%
X133071693Y-134080810D02*
X132919190Y-133928307D01*
X133580810Y-133571693D02*
X133428307Y-133419190D01*
%TO.C,R7*%
X130622659Y-134589940D02*
X130839940Y-134372659D01*
X131160060Y-135127341D02*
X131377341Y-134910060D01*
%TO.C,C35*%
X124080810Y-133428307D02*
X123928307Y-133580810D01*
X123571693Y-132919190D02*
X123419190Y-133071693D01*
%TO.C,C16*%
X115669190Y-124321693D02*
X115821693Y-124169190D01*
X116178307Y-124830810D02*
X116330810Y-124678307D01*
%TO.C,C3*%
X134607836Y-121360000D02*
X134392164Y-121360000D01*
X134607836Y-120640000D02*
X134392164Y-120640000D01*
%TO.C,U4*%
X131646913Y-135396913D02*
X130462510Y-136581317D01*
X131646913Y-135396913D02*
X132106533Y-134937294D01*
X133853087Y-137603087D02*
X133393467Y-138062706D01*
X133853087Y-137603087D02*
X134312706Y-137143467D01*
%TO.C,R4*%
X129877341Y-136410060D02*
X129660060Y-136627341D01*
X129339940Y-135872659D02*
X129122659Y-136089940D01*
D11*
%TO.C,U3*%
X119076000Y-136326000D02*
X119076000Y-133174000D01*
X116924000Y-133174000D02*
X116924000Y-134750000D01*
%TO.C,DP1*%
X136376000Y-119024000D02*
X136376000Y-119976000D01*
X134624000Y-119024000D02*
X134624000Y-119976000D01*
D12*
X136075000Y-118710000D02*
G75*
G03*
X136075000Y-118710000I-75000J0D01*
G01*
G36*
X136140000Y-119600000D02*
G01*
X135940000Y-119600000D01*
X135940000Y-119400000D01*
X136140000Y-119400000D01*
X136140000Y-119600000D01*
G37*
D10*
%TO.C,C32*%
X118178307Y-124169190D02*
X118330810Y-124321693D01*
X117669190Y-124678307D02*
X117821693Y-124830810D01*
%TO.C,C18*%
X133571693Y-130080810D02*
X133419190Y-129928307D01*
X134080810Y-129571693D02*
X133928307Y-129419190D01*
%TO.C,C4*%
X133321693Y-123830810D02*
X133169190Y-123678307D01*
X133830810Y-123321693D02*
X133678307Y-123169190D01*
%TO.C,C11*%
X136428307Y-130419190D02*
X136580810Y-130571693D01*
X135919190Y-130928307D02*
X136071693Y-131080810D01*
%TO.C,C36*%
X127821693Y-135830810D02*
X127669190Y-135678307D01*
X128330810Y-135321693D02*
X128178307Y-135169190D01*
%TO.C,C15*%
X124321693Y-118330810D02*
X124169190Y-118178307D01*
X124830810Y-117821693D02*
X124678307Y-117669190D01*
%TO.C,R6*%
X121160060Y-121122659D02*
X121377341Y-121339940D01*
X120622659Y-121660060D02*
X120839940Y-121877341D01*
%TO.C,C1*%
X136392164Y-120640000D02*
X136607836Y-120640000D01*
X136392164Y-121360000D02*
X136607836Y-121360000D01*
%TO.C,TP2*%
X135200000Y-114000000D02*
G75*
G03*
X135200000Y-114000000I-700000J0D01*
G01*
%TO.C,C29*%
X120428307Y-121919190D02*
X120580810Y-122071693D01*
X119919190Y-122428307D02*
X120071693Y-122580810D01*
%TO.C,R2*%
X130839940Y-132877341D02*
X130622659Y-132660060D01*
X131377341Y-132339940D02*
X131160060Y-132122659D01*
%TO.C,C30*%
X119321693Y-123330810D02*
X119169190Y-123178307D01*
X119830810Y-122821693D02*
X119678307Y-122669190D01*
%TO.C,C20*%
X132321693Y-131330810D02*
X132169190Y-131178307D01*
X132830810Y-130821693D02*
X132678307Y-130669190D01*
%TO.C,C33*%
X116669190Y-125321693D02*
X116821693Y-125169190D01*
X117178307Y-125830810D02*
X117330810Y-125678307D01*
%TO.C,C9*%
X135892164Y-115640000D02*
X136107836Y-115640000D01*
X135892164Y-116360000D02*
X136107836Y-116360000D01*
%TO.C,C10*%
X116640000Y-129107836D02*
X116640000Y-128892164D01*
X117360000Y-129107836D02*
X117360000Y-128892164D01*
%TO.C,Y1*%
X136517767Y-132108579D02*
X134891421Y-130482233D01*
X134891421Y-130482233D02*
X132982233Y-132391421D01*
%TO.C,C23*%
X135821693Y-127830810D02*
X135669190Y-127678307D01*
X136330810Y-127321693D02*
X136178307Y-127169190D01*
%TO.C,kibuzzard-6492E3AE*%
G36*
X121284027Y-117833432D02*
G01*
X121342486Y-117872365D01*
X121382848Y-117930587D01*
X121396303Y-118001429D01*
X121382491Y-118072033D01*
X121341058Y-118129540D01*
X121282479Y-118167759D01*
X121217233Y-118180499D01*
X121124840Y-118180499D01*
X121124840Y-117820454D01*
X121216280Y-117820454D01*
X121284027Y-117833432D01*
G37*
G36*
X120629064Y-118558006D02*
G01*
X119688470Y-118558006D01*
X119435105Y-118558006D01*
X119236668Y-118558006D01*
X118996109Y-118197168D01*
X119435105Y-118197168D01*
X119459870Y-118251936D01*
X119468443Y-118262414D01*
X119496065Y-118291465D01*
X119538928Y-118321469D01*
X119603698Y-118348615D01*
X119644893Y-118356830D01*
X119688470Y-118359569D01*
X119745726Y-118353960D01*
X119800653Y-118337132D01*
X119853253Y-118309086D01*
X119889448Y-118278011D01*
X119918023Y-118236220D01*
X119936596Y-118185380D01*
X119942788Y-118127159D01*
X119936715Y-118070128D01*
X119918499Y-118022860D01*
X119891233Y-117986784D01*
X119858015Y-117963329D01*
X119820153Y-117947493D01*
X119778958Y-117934277D01*
X119737762Y-117923919D01*
X119699900Y-117916656D01*
X119639416Y-117894749D01*
X119615128Y-117852362D01*
X119635606Y-117811405D01*
X119687041Y-117796641D01*
X119738000Y-117809024D01*
X119752764Y-117821406D01*
X119763718Y-117830931D01*
X119813248Y-117849981D01*
X119847061Y-117838075D01*
X119879923Y-117802356D01*
X119902783Y-117749969D01*
X119881691Y-117716631D01*
X119980888Y-117716631D01*
X119991365Y-117763304D01*
X120175198Y-118291941D01*
X120181865Y-118306229D01*
X120208059Y-118334804D01*
X120258065Y-118349091D01*
X120310453Y-118327184D01*
X120325693Y-118308134D01*
X120334265Y-118291941D01*
X120339180Y-118277387D01*
X120352401Y-118238296D01*
X120373927Y-118174669D01*
X120403759Y-118086506D01*
X120441898Y-117973806D01*
X120553340Y-118302419D01*
X120580486Y-118333375D01*
X120629064Y-118349091D01*
X120677641Y-118333375D01*
X120702883Y-118308134D01*
X120709550Y-118291941D01*
X120719106Y-118264319D01*
X120956248Y-118264319D01*
X120967678Y-118325279D01*
X120992919Y-118343138D01*
X121040068Y-118349091D01*
X121214375Y-118349091D01*
X121284533Y-118342602D01*
X121349273Y-118323136D01*
X121408596Y-118290691D01*
X121462501Y-118245269D01*
X121507299Y-118190768D01*
X121539297Y-118131088D01*
X121558495Y-118066229D01*
X121564895Y-117996190D01*
X121558347Y-117926419D01*
X121538701Y-117862364D01*
X121505959Y-117804023D01*
X121460120Y-117751398D01*
X121405649Y-117707850D01*
X121347011Y-117676745D01*
X121284205Y-117658082D01*
X121217233Y-117651861D01*
X121041020Y-117650909D01*
X120991966Y-117657338D01*
X120966725Y-117676626D01*
X120957676Y-117701391D01*
X120956248Y-117734729D01*
X120956248Y-118264319D01*
X120719106Y-118264319D01*
X120892430Y-117763304D01*
X120903860Y-117716631D01*
X120887906Y-117682341D01*
X120840043Y-117655671D01*
X120795275Y-117646146D01*
X120763366Y-117656147D01*
X120745745Y-117676626D01*
X120733363Y-117709011D01*
X120628588Y-118029051D01*
X120519050Y-117698534D01*
X120492380Y-117667577D01*
X120447136Y-117651861D01*
X120407608Y-117658529D01*
X120377842Y-117679960D01*
X120359030Y-117713774D01*
X120255208Y-118027146D01*
X120150433Y-117709011D01*
X120129001Y-117662339D01*
X120094711Y-117647099D01*
X120044705Y-117656624D01*
X119996842Y-117682579D01*
X119980888Y-117716631D01*
X119881691Y-117716631D01*
X119873255Y-117703296D01*
X119849443Y-117685199D01*
X119784196Y-117655195D01*
X119734547Y-117644122D01*
X119679898Y-117640431D01*
X119613170Y-117647363D01*
X119556496Y-117668160D01*
X119509876Y-117702820D01*
X119475216Y-117746794D01*
X119454420Y-117795530D01*
X119447487Y-117849029D01*
X119453560Y-117905583D01*
X119471776Y-117953327D01*
X119499042Y-117990832D01*
X119532260Y-118016669D01*
X119569884Y-118035362D01*
X119610365Y-118051435D01*
X119650846Y-118064175D01*
X119688470Y-118072866D01*
X119748954Y-118094298D01*
X119773243Y-118130969D01*
X119763400Y-118171185D01*
X119733873Y-118195315D01*
X119684660Y-118203359D01*
X119638940Y-118188595D01*
X119600840Y-118157639D01*
X119558454Y-118121920D01*
X119526545Y-118110014D01*
X119476063Y-118132874D01*
X119445344Y-118168950D01*
X119435105Y-118197168D01*
X118996109Y-118197168D01*
X118864663Y-118000000D01*
X119236668Y-117441994D01*
X119435105Y-117441994D01*
X121564895Y-117441994D01*
X121763333Y-117441994D01*
X122135337Y-118000000D01*
X121763333Y-118558006D01*
X121564895Y-118558006D01*
X121214375Y-118558006D01*
X120629064Y-118558006D01*
G37*
%TO.C,R1*%
X122346359Y-134620000D02*
X122653641Y-134620000D01*
X122346359Y-135380000D02*
X122653641Y-135380000D01*
%TO.C,C34*%
X118678307Y-128669190D02*
X118830810Y-128821693D01*
X118169190Y-129178307D02*
X118321693Y-129330810D01*
%TO.C,R3*%
X127089940Y-136627341D02*
X126872659Y-136410060D01*
X127627341Y-136089940D02*
X127410060Y-135872659D01*
%TD*%
%LPC*%
D13*
%TO.C,J2*%
X136250000Y-144000000D03*
X135750000Y-144000000D03*
X135250000Y-144000000D03*
X134750000Y-144000000D03*
X134250000Y-144000000D03*
X133750000Y-144000000D03*
X131250000Y-144000000D03*
X130750000Y-144000000D03*
X130250000Y-144000000D03*
X129750000Y-144000000D03*
X129250000Y-144000000D03*
X128750000Y-144000000D03*
X128250000Y-144000000D03*
X127750000Y-144000000D03*
X127250000Y-144000000D03*
X126750000Y-144000000D03*
X126250000Y-144000000D03*
X125750000Y-144000000D03*
X125250000Y-144000000D03*
X124750000Y-144000000D03*
X124250000Y-144000000D03*
X123750000Y-144000000D03*
X123250000Y-144000000D03*
X122750000Y-144000000D03*
X122250000Y-144000000D03*
X121750000Y-144000000D03*
X121250000Y-144000000D03*
X120750000Y-144000000D03*
X120250000Y-144000000D03*
X119750000Y-144000000D03*
X119250000Y-144000000D03*
X118750000Y-144000000D03*
X118250000Y-144000000D03*
X117750000Y-144000000D03*
D14*
X127000000Y-113250000D03*
%TD*%
D15*
%TO.C,L4*%
X119501302Y-128001301D03*
X117998700Y-126498699D03*
%TD*%
D16*
%TO.C,C22*%
X134910589Y-127910589D03*
X135589411Y-128589411D03*
%TD*%
D17*
%TO.C,C6*%
X135339411Y-115839411D03*
X134660589Y-115160589D03*
%TD*%
D16*
%TO.C,C28*%
X122410589Y-119410589D03*
X123089411Y-120089411D03*
%TD*%
D17*
%TO.C,C14*%
X129839411Y-134339411D03*
X129160589Y-133660589D03*
%TD*%
D18*
%TO.C,U1*%
X127548008Y-132487705D03*
X127830850Y-132204862D03*
X128113693Y-131922019D03*
X128396536Y-131639177D03*
X128679379Y-131356334D03*
X128962221Y-131073491D03*
X129245064Y-130790648D03*
X129527907Y-130507806D03*
X129810749Y-130224963D03*
X130093592Y-129942120D03*
X130376435Y-129659278D03*
X130659278Y-129376435D03*
X130942120Y-129093592D03*
X131224963Y-128810749D03*
X131507806Y-128527907D03*
X131790648Y-128245064D03*
X132073491Y-127962221D03*
X132356334Y-127679379D03*
X132639177Y-127396536D03*
X132922019Y-127113693D03*
X133204862Y-126830850D03*
X133487705Y-126548008D03*
D19*
X133487705Y-125451992D03*
X133204862Y-125169150D03*
X132922019Y-124886307D03*
X132639177Y-124603464D03*
X132356334Y-124320621D03*
X132073491Y-124037779D03*
X131790648Y-123754936D03*
X131507806Y-123472093D03*
X131224963Y-123189251D03*
X130942120Y-122906408D03*
X130659278Y-122623565D03*
X130376435Y-122340722D03*
X130093592Y-122057880D03*
X129810749Y-121775037D03*
X129527907Y-121492194D03*
X129245064Y-121209352D03*
X128962221Y-120926509D03*
X128679379Y-120643666D03*
X128396536Y-120360823D03*
X128113693Y-120077981D03*
X127830850Y-119795138D03*
X127548008Y-119512295D03*
D18*
X126451992Y-119512295D03*
X126169150Y-119795138D03*
X125886307Y-120077981D03*
X125603464Y-120360823D03*
X125320621Y-120643666D03*
X125037779Y-120926509D03*
X124754936Y-121209352D03*
X124472093Y-121492194D03*
X124189251Y-121775037D03*
X123906408Y-122057880D03*
X123623565Y-122340722D03*
X123340722Y-122623565D03*
X123057880Y-122906408D03*
X122775037Y-123189251D03*
X122492194Y-123472093D03*
X122209352Y-123754936D03*
X121926509Y-124037779D03*
X121643666Y-124320621D03*
X121360823Y-124603464D03*
X121077981Y-124886307D03*
X120795138Y-125169150D03*
X120512295Y-125451992D03*
D19*
X120512295Y-126548008D03*
X120795138Y-126830850D03*
X121077981Y-127113693D03*
X121360823Y-127396536D03*
X121643666Y-127679379D03*
X121926509Y-127962221D03*
X122209352Y-128245064D03*
X122492194Y-128527907D03*
X122775037Y-128810749D03*
X123057880Y-129093592D03*
X123340722Y-129376435D03*
X123623565Y-129659278D03*
X123906408Y-129942120D03*
X124189251Y-130224963D03*
X124472093Y-130507806D03*
X124754936Y-130790648D03*
X125037779Y-131073491D03*
X125320621Y-131356334D03*
X125603464Y-131639177D03*
X125886307Y-131922019D03*
X126169150Y-132204862D03*
X126451992Y-132487705D03*
D20*
X127442826Y-129198774D03*
X128491111Y-128150488D03*
X129539397Y-127102203D03*
X130587683Y-126053917D03*
X126346810Y-128102759D03*
X127395096Y-127054473D03*
X128443382Y-126006187D03*
X129491668Y-124957901D03*
X125250795Y-127006743D03*
X126299080Y-125958457D03*
X127347366Y-124910172D03*
X128395652Y-123861886D03*
X124154779Y-125910728D03*
X125203065Y-124862442D03*
X126251351Y-123814156D03*
X127299636Y-122765870D03*
%TD*%
D21*
%TO.C,J4*%
X116500000Y-116040000D03*
X115484000Y-110960000D03*
X117516000Y-110960000D03*
D22*
X117135000Y-114770000D03*
X115865000Y-114770000D03*
X117135000Y-113500000D03*
X115865000Y-113500000D03*
X117135000Y-112230000D03*
X115865000Y-112230000D03*
%TD*%
D16*
%TO.C,C19*%
X131410589Y-131410589D03*
X132089411Y-132089411D03*
%TD*%
D23*
%TO.C,L1*%
X136000000Y-122985000D03*
X136000000Y-122015000D03*
%TD*%
D24*
%TO.C,C7*%
X134480000Y-113000000D03*
X133520000Y-113000000D03*
%TD*%
D16*
%TO.C,C31*%
X118410589Y-123410589D03*
X119089411Y-124089411D03*
%TD*%
D24*
%TO.C,C8*%
X134480000Y-110000000D03*
X133520000Y-110000000D03*
%TD*%
D21*
%TO.C,J3*%
X120500000Y-116040000D03*
X119484000Y-110960000D03*
X121516000Y-110960000D03*
D22*
X121135000Y-114770000D03*
X119865000Y-114770000D03*
X121135000Y-113500000D03*
X119865000Y-113500000D03*
X121135000Y-112230000D03*
X119865000Y-112230000D03*
%TD*%
D17*
%TO.C,C24*%
X137089411Y-127089411D03*
X136410589Y-126410589D03*
%TD*%
D25*
%TO.C,TP1*%
X137500000Y-115000000D03*
%TD*%
D26*
%TO.C,C5*%
X135500000Y-117980000D03*
X135500000Y-117020000D03*
%TD*%
D17*
%TO.C,C13*%
X129089411Y-135089411D03*
X128410589Y-134410589D03*
%TD*%
D16*
%TO.C,C21*%
X134160589Y-128660589D03*
X134839411Y-129339411D03*
%TD*%
D17*
%TO.C,C17*%
X130589411Y-133589411D03*
X129910589Y-132910589D03*
%TD*%
D24*
%TO.C,C25*%
X133980000Y-122000000D03*
X133020000Y-122000000D03*
%TD*%
D16*
%TO.C,C27*%
X124910589Y-116910589D03*
X125589411Y-117589411D03*
%TD*%
D27*
%TO.C,C26*%
X132020000Y-121000000D03*
X132980000Y-121000000D03*
%TD*%
D16*
%TO.C,C2*%
X134660589Y-124660589D03*
X135339411Y-125339411D03*
%TD*%
D28*
%TO.C,U2*%
X116095000Y-138350000D03*
X117365000Y-138350000D03*
X118635000Y-138350000D03*
X119905000Y-138350000D03*
X119905000Y-131150000D03*
X118635000Y-131150000D03*
X117365000Y-131150000D03*
X116095000Y-131150000D03*
%TD*%
D29*
%TO.C,R5*%
X124139376Y-134360624D03*
X124860624Y-133639376D03*
%TD*%
D30*
%TO.C,J1*%
X137500000Y-113550000D03*
D31*
X136025000Y-112025000D03*
X138975000Y-112025000D03*
%TD*%
D17*
%TO.C,C12*%
X133589411Y-134089411D03*
X132910589Y-133410589D03*
%TD*%
D29*
%TO.C,R7*%
X130639376Y-135110624D03*
X131360624Y-134389376D03*
%TD*%
D32*
%TO.C,C35*%
X124089411Y-132910589D03*
X123410589Y-133589411D03*
%TD*%
D33*
%TO.C,C16*%
X115660589Y-124839411D03*
X116339411Y-124160589D03*
%TD*%
D24*
%TO.C,C3*%
X134980000Y-121000000D03*
X134020000Y-121000000D03*
%TD*%
D34*
%TO.C,U4*%
X131415336Y-136491161D03*
X132758839Y-137834664D03*
X133412913Y-135837087D03*
%TD*%
D35*
%TO.C,R4*%
X129860624Y-135889376D03*
X129139376Y-136610624D03*
%TD*%
D36*
%TO.C,U3*%
X117250000Y-136257000D03*
X117750000Y-136257000D03*
X118250000Y-136257000D03*
X118750000Y-136257000D03*
X118750000Y-133243000D03*
X118250000Y-133243000D03*
X117750000Y-133243000D03*
X117250000Y-133243000D03*
D37*
X118000000Y-134750000D03*
%TD*%
D38*
%TO.C,DP1*%
X136000000Y-119143000D03*
X135500000Y-119143000D03*
X135000000Y-119143000D03*
X135000000Y-119857000D03*
X135500000Y-119857000D03*
X136000000Y-119857000D03*
%TD*%
D16*
%TO.C,C32*%
X117660589Y-124160589D03*
X118339411Y-124839411D03*
%TD*%
D17*
%TO.C,C18*%
X134089411Y-130089411D03*
X133410589Y-129410589D03*
%TD*%
%TO.C,C4*%
X133839411Y-123839411D03*
X133160589Y-123160589D03*
%TD*%
D16*
%TO.C,C11*%
X135910589Y-130410589D03*
X136589411Y-131089411D03*
%TD*%
D17*
%TO.C,C36*%
X128339411Y-135839411D03*
X127660589Y-135160589D03*
%TD*%
%TO.C,C15*%
X124839411Y-118339411D03*
X124160589Y-117660589D03*
%TD*%
D23*
%TO.C,L2*%
X135000000Y-122970000D03*
X135000000Y-122000000D03*
%TD*%
D39*
%TO.C,R6*%
X120639376Y-121139376D03*
X121360624Y-121860624D03*
%TD*%
D27*
%TO.C,C1*%
X136020000Y-121000000D03*
X136980000Y-121000000D03*
%TD*%
D25*
%TO.C,TP2*%
X134500000Y-114000000D03*
%TD*%
D16*
%TO.C,C29*%
X119910589Y-121910589D03*
X120589411Y-122589411D03*
%TD*%
D40*
%TO.C,R2*%
X131360624Y-132860624D03*
X130639376Y-132139376D03*
%TD*%
D17*
%TO.C,C30*%
X119839411Y-123339411D03*
X119160589Y-122660589D03*
%TD*%
%TO.C,C20*%
X132839411Y-131339411D03*
X132160589Y-130660589D03*
%TD*%
D23*
%TO.C,L3*%
X134500000Y-111985000D03*
X134500000Y-111015000D03*
%TD*%
D33*
%TO.C,C33*%
X116660589Y-125839411D03*
X117339411Y-125160589D03*
%TD*%
D27*
%TO.C,C9*%
X135520000Y-116000000D03*
X136480000Y-116000000D03*
%TD*%
D26*
%TO.C,C10*%
X117000000Y-129480000D03*
X117000000Y-128520000D03*
%TD*%
D41*
%TO.C,Y1*%
X134856066Y-131366117D03*
X133866117Y-132356066D03*
X134643934Y-133133883D03*
X135633883Y-132143934D03*
%TD*%
D17*
%TO.C,C23*%
X136339411Y-127839411D03*
X135660589Y-127160589D03*
%TD*%
D42*
%TO.C,R1*%
X121990000Y-135000000D03*
X123010000Y-135000000D03*
%TD*%
D16*
%TO.C,C34*%
X118160589Y-128660589D03*
X118839411Y-129339411D03*
%TD*%
D40*
%TO.C,R3*%
X127610624Y-136610624D03*
X126889376Y-135889376D03*
%TD*%
M02*
